<?xml version="1.0" encoding="utf-8"?>
<!-- Generator: Adobe Illustrator 27.5.0, SVG Export Plug-In . SVG Version: 6.00 Build 0)  -->
<svg version="1.1" xmlns="http://www.w3.org/2000/svg" xmlns:xlink="http://www.w3.org/1999/xlink" x="0px" y="0px"
	 viewBox="0 0 500 500" style="enable-background:new 0 0 500 500;" xml:space="preserve">
<g id="Background_Complete">
	<g>
		<g>
			<polygon style="fill:#EBEBEB;" points="44.611,222.671 76.943,234.121 68.786,238.851 46.194,251.755 38.924,255.925 			"/>
		</g>
		<g>
			<g>
				<polygon style="fill:#EBEBEB;" points="185.389,400.148 205.526,391.021 161.691,316.321 141.937,333.888 107.183,272.952 
					88.064,285.902 56.952,229.814 45.528,234.637 83.512,310.264 105.081,291.587 137.824,359.601 157.391,338.381 				"/>
			</g>
		</g>
	</g>
	<g>
		<g>
			<g>
				<g>
					<g>
						<path style="fill:#F5F5F5;" d="M475.686,314.618c-2.291,15.245-16.534,25.742-31.814,23.448
							c-15.28-2.296-25.811-16.515-23.52-31.76c2.29-15.245,16.533-25.742,31.814-23.447
							C467.445,285.154,477.976,299.373,475.686,314.618z"/>
					</g>
				</g>
			</g>
			<g>
				<g>
					<g>
						<path style="fill:#EBEBEB;" d="M469.102,313.629c-1.745,11.617-12.6,19.617-24.245,17.868
							c-11.644-1.749-19.669-12.585-17.924-24.202c1.746-11.618,12.6-19.618,24.244-17.868
							C462.822,291.176,470.847,302.011,469.102,313.629z"/>
					</g>
				</g>
			</g>
			<g>
				<g>
					<g>
						<g>
							<path style="fill:#E0E0E0;" d="M469.197,312.967c-0.129-0.015-0.079-0.953-0.176-2.619c-0.106-1.657-0.396-4.075-1.461-6.828
								c-0.533-1.371-1.255-2.818-2.216-4.251c-0.972-1.422-2.166-2.839-3.627-4.104c-0.727-0.635-1.511-1.243-2.362-1.787
								c-0.848-0.548-1.745-1.06-2.704-1.487c-0.955-0.429-1.954-0.814-2.999-1.1c-1.044-0.288-2.123-0.505-3.227-0.644
								c-1.106-0.123-2.207-0.164-3.289-0.128c-1.083,0.035-2.144,0.176-3.174,0.37c-1.032,0.192-2.025,0.481-2.976,0.815
								c-0.955,0.33-1.859,0.739-2.714,1.187c-1.715,0.89-3.208,1.99-4.483,3.146c-1.268,1.168-2.308,2.408-3.146,3.617
								c-1.677,2.428-2.522,4.711-3.011,6.298c-0.482,1.597-0.653,2.522-0.782,2.505c-0.095-0.009-0.14-0.963,0.164-2.656
								c0.312-1.68,1.018-4.129,2.661-6.777c0.822-1.318,1.87-2.678,3.18-3.966c1.317-1.276,2.881-2.495,4.702-3.488
								c0.908-0.499,1.871-0.956,2.893-1.327c1.019-0.376,2.085-0.7,3.196-0.918c1.109-0.221,2.253-0.381,3.422-0.425
								c1.168-0.046,2.356-0.004,3.548,0.129c1.191,0.148,2.355,0.385,3.48,0.702c1.126,0.316,2.201,0.739,3.228,1.212
								c1.029,0.471,1.99,1.035,2.892,1.639c0.907,0.599,1.738,1.268,2.504,1.965c1.538,1.391,2.776,2.94,3.76,4.489
								c0.972,1.557,1.676,3.125,2.167,4.598c0.981,2.959,1.097,5.504,1.009,7.212C469.557,312.064,469.292,312.98,469.197,312.967z
								"/>
						</g>
					</g>
				</g>
			</g>
		</g>
		<g>
			<g>
				<g>
					<g>
						<g>
							<path style="fill:#E0E0E0;" d="M448.514,323.396l-0.498,3.681l-3.286-0.446l0.485-3.581c-3.226-0.638-6.21-2.079-7.825-3.737
								l2.349-3.764c1.479,1.439,3.724,2.646,6.059,3.197l0.743-5.488c-3.527-1.38-7.437-3.148-6.8-7.848
								c0.472-3.483,3.407-6.13,8.678-6.018l0.494-3.648l3.286,0.445l-0.486,3.582c2.438,0.531,4.747,1.513,6.398,2.907l-2.19,3.82
								c-1.547-1.18-3.18-1.97-4.796-2.391l-0.757,5.587c3.531,1.348,7.375,3.108,6.748,7.74
								C456.656,320.852,453.758,323.47,448.514,323.396z M447.197,308.427l0.631-4.666c-1.794,0.158-2.613,1.018-2.761,2.103
								C444.912,307.013,445.813,307.772,447.197,308.427z M451.776,317.112c0.156-1.151-0.712-1.903-2.059-2.589l-0.615,4.535
								C450.795,318.92,451.633,318.163,451.776,317.112z"/>
						</g>
					</g>
				</g>
			</g>
		</g>
	</g>
	<g>
		<g>
			<g>
				<g>
					<g>
						<path style="fill:#F5F5F5;" d="M455.39,94.859c-1.996,13.279-14.403,22.423-27.712,20.424
							c-13.31-2-22.483-14.385-20.487-27.665c1.995-13.279,14.402-22.423,27.712-20.423C448.212,69.194,457.384,81.58,455.39,94.859
							z"/>
					</g>
				</g>
			</g>
			<g>
				<g>
					<g>
						<path style="fill:#EBEBEB;" d="M449.655,93.998c-1.52,10.119-10.975,17.087-21.119,15.564
							c-10.142-1.523-17.133-10.963-15.613-21.082c1.521-10.12,10.976-17.088,21.118-15.564
							C444.185,74.439,451.175,83.878,449.655,93.998z"/>
					</g>
				</g>
			</g>
			<g>
				<g>
					<g>
						<g>
							<path style="fill:#E0E0E0;" d="M449.737,93.421c-0.112-0.013-0.069-0.831-0.154-2.282c-0.092-1.444-0.345-3.549-1.273-5.947
								c-0.464-1.194-1.093-2.455-1.93-3.703c-0.847-1.238-1.886-2.473-3.159-3.575c-0.634-0.553-1.316-1.083-2.058-1.556
								c-0.738-0.477-1.52-0.924-2.355-1.295c-0.832-0.374-1.702-0.709-2.612-0.959c-0.909-0.251-1.849-0.44-2.811-0.561
								c-0.964-0.107-1.922-0.143-2.865-0.111c-0.944,0.031-1.867,0.154-2.764,0.323c-0.899,0.167-1.764,0.419-2.593,0.71
								c-0.831,0.287-1.619,0.644-2.364,1.034c-1.494,0.775-2.794,1.733-3.905,2.74c-1.104,1.017-2.01,2.097-2.74,3.15
								c-1.461,2.115-2.196,4.103-2.623,5.486c-0.42,1.391-0.569,2.197-0.681,2.182c-0.083-0.008-0.121-0.838,0.143-2.314
								c0.272-1.464,0.887-3.597,2.318-5.903c0.716-1.148,1.629-2.333,2.77-3.455c1.147-1.111,2.51-2.173,4.096-3.038
								c0.79-0.435,1.63-0.832,2.52-1.156c0.888-0.328,1.816-0.61,2.784-0.8c0.966-0.193,1.963-0.332,2.981-0.37
								c1.017-0.04,2.052-0.004,3.091,0.113c1.037,0.129,2.051,0.336,3.031,0.612c0.981,0.275,1.917,0.644,2.812,1.056
								c0.896,0.41,1.734,0.902,2.52,1.427c0.79,0.522,1.514,1.104,2.181,1.711c1.34,1.212,2.418,2.561,3.275,3.91
								c0.846,1.357,1.46,2.722,1.888,4.006c0.854,2.577,0.955,4.795,0.879,6.282C450.051,92.634,449.82,93.432,449.737,93.421z"/>
						</g>
					</g>
				</g>
			</g>
		</g>
		<g>
			<g>
				<g>
					<g>
						<g>
							<path style="fill:#E0E0E0;" d="M431.722,102.505l-0.434,3.206l-2.862-0.389l0.423-3.119c-2.81-0.556-5.409-1.811-6.816-3.255
								l2.047-3.279c1.288,1.254,3.243,2.305,5.278,2.785l0.647-4.781c-3.073-1.202-6.478-2.742-5.923-6.836
								c0.411-3.034,2.968-5.34,7.559-5.242l0.431-3.178l2.862,0.388l-0.423,3.12c2.123,0.462,4.135,1.318,5.573,2.533l-1.908,3.327
								c-1.348-1.028-2.77-1.716-4.178-2.082l-0.659,4.867c3.076,1.174,6.424,2.707,5.878,6.742
								C438.813,100.289,436.289,102.57,431.722,102.505z M430.574,89.466l0.55-4.064c-1.563,0.138-2.276,0.887-2.405,1.831
								C428.584,88.234,429.369,88.895,430.574,89.466z M434.563,97.032c0.135-1.003-0.621-1.658-1.793-2.255l-0.535,3.95
								C433.708,98.606,434.438,97.947,434.563,97.032z"/>
						</g>
					</g>
				</g>
			</g>
		</g>
	</g>
	<g>
		<g>
			<g>
				<g>
					<g>
						<path style="fill:#F5F5F5;" d="M169.385,63.969c5.88,21.632-6.928,43.947-28.609,49.842
							c-21.682,5.895-44.026-6.862-49.907-28.495c-5.882-21.631,6.927-43.946,28.609-49.841
							C141.158,29.581,163.503,42.338,169.385,63.969z"/>
					</g>
				</g>
			</g>
			<g>
				<g>
					<g>
						<path style="fill:#EBEBEB;" d="M160.043,66.509c4.482,16.484-5.279,33.489-21.803,37.982
							c-16.521,4.492-33.55-5.23-38.032-21.713c-4.481-16.485,5.28-33.491,21.802-37.983
							C138.533,40.304,155.561,50.025,160.043,66.509z"/>
					</g>
				</g>
			</g>
			<g>
				<g>
					<g>
						<g>
							<path style="fill:#E0E0E0;" d="M159.781,65.574c-0.18,0.056-0.664-1.223-1.769-3.383c-1.112-2.144-2.913-5.192-5.944-8.231
								c-1.512-1.512-3.321-3.016-5.439-4.36c-2.127-1.323-4.545-2.51-7.231-3.338c-1.34-0.419-2.739-0.77-4.19-0.994
								c-1.449-0.233-2.944-0.389-4.47-0.395c-1.523-0.011-3.077,0.061-4.636,0.292c-1.558,0.228-3.121,0.571-4.672,1.033
								c-1.545,0.484-3.034,1.074-4.452,1.756c-1.421,0.681-2.75,1.491-4.007,2.352c-1.262,0.86-2.413,1.826-3.484,2.829
								c-1.077,0.998-2.04,2.073-2.917,3.169c-1.762,2.189-3.103,4.527-4.124,6.813c-1.003,2.297-1.661,4.556-2.069,6.656
								c-0.81,4.214-0.597,7.746-0.319,10.146c0.294,2.408,0.608,3.739,0.427,3.792c-0.132,0.044-0.749-1.199-1.338-3.632
								c-0.569-2.419-1.064-6.091-0.428-10.579c0.321-2.236,0.921-4.66,1.909-7.141c1.006-2.47,2.373-5.008,4.216-7.397
								c0.916-1.196,1.931-2.368,3.073-3.46c1.136-1.097,2.365-2.153,3.715-3.094c1.347-0.944,2.776-1.827,4.306-2.57
								c1.528-0.746,3.133-1.385,4.798-1.906c1.672-0.5,3.36-0.867,5.042-1.103c1.684-0.239,3.363-0.306,5.006-0.278
								c1.645,0.024,3.255,0.212,4.81,0.487c1.558,0.266,3.056,0.67,4.483,1.148c2.863,0.95,5.417,2.287,7.634,3.772
								c2.206,1.504,4.061,3.178,5.578,4.851c3.039,3.363,4.684,6.684,5.567,9.007C159.732,64.159,159.915,65.535,159.781,65.574z"
								/>
						</g>
					</g>
				</g>
			</g>
		</g>
		<g>
			<g>
				<g>
					<g>
						<g>
							<path style="fill:#E0E0E0;" d="M138.362,91.567l1.493,5.191l-4.634,1.331l-1.452-5.05c-4.668,1.04-9.483,0.87-12.604-0.39
								l0.922-6.386c2.811,1.049,6.506,1.341,9.937,0.706l-2.226-7.74c-5.503,0.229-11.742,0.166-13.647-6.462
								c-1.412-4.912,0.944-10.154,8.026-13.093l-1.479-5.145l4.635-1.332l1.452,5.052c3.555-0.721,7.204-0.767,10.219,0.122
								l-0.677,6.367c-2.75-0.664-5.386-0.759-7.784-0.373l2.265,7.879c5.489-0.275,11.637-0.184,13.515,6.349
								C147.708,83.413,145.385,88.596,138.362,91.567z M127.841,72.416l-1.893-6.58c-2.296,1.262-2.882,2.886-2.443,4.415
								C123.972,71.873,125.615,72.355,127.841,72.416z M139.022,81.294c-0.467-1.623-2.063-2.116-4.257-2.24l1.838,6.396
								C138.775,84.274,139.449,82.777,139.022,81.294z"/>
						</g>
					</g>
				</g>
			</g>
		</g>
	</g>
	<g>
		<g>
			<g>
				<g>
					<g>
						<path style="fill:#F5F5F5;" d="M78.875,132.557c-2.611,13.774-15.918,22.819-29.724,20.204
							c-13.806-2.616-22.882-15.903-20.271-29.677c2.61-13.774,15.917-22.819,29.723-20.203
							C72.408,105.496,81.484,118.783,78.875,132.557z"/>
					</g>
				</g>
			</g>
			<g>
				<g>
					<g>
						<path style="fill:#EBEBEB;" d="M72.926,131.43c-1.989,10.496-12.13,17.389-22.652,15.396
							c-10.52-1.993-17.437-12.119-15.448-22.615c1.99-10.497,12.131-17.39,22.651-15.396
							C67.999,110.808,74.915,120.934,72.926,131.43z"/>
					</g>
				</g>
			</g>
			<g>
				<g>
					<g>
						<g>
							<path style="fill:#E0E0E0;" d="M73.035,130.832c-0.117-0.018-0.039-0.869-0.069-2.386c-0.039-1.51-0.218-3.717-1.091-6.255
								c-0.436-1.264-1.042-2.605-1.866-3.94c-0.834-1.326-1.869-2.655-3.153-3.855c-0.639-0.602-1.33-1.182-2.085-1.706
								c-0.751-0.527-1.549-1.024-2.406-1.445c-0.853-0.423-1.747-0.807-2.687-1.104c-0.938-0.298-1.911-0.533-2.91-0.697
								c-1.001-0.15-2-0.226-2.984-0.23c-0.986-0.006-1.954,0.086-2.897,0.226c-0.945,0.138-1.856,0.367-2.733,0.638
								c-0.879,0.267-1.715,0.607-2.507,0.984c-1.59,0.749-2.984,1.697-4.183,2.703c-1.193,1.018-2.181,2.108-2.984,3.177
								c-1.608,2.148-2.455,4.193-2.955,5.618c-0.493,1.435-0.681,2.269-0.797,2.249c-0.086-0.012-0.093-0.879,0.241-2.408
								c0.342-1.516,1.068-3.717,2.653-6.066c0.792-1.169,1.792-2.369,3.027-3.494c1.241-1.114,2.705-2.167,4.394-3.007
								c0.842-0.422,1.733-0.803,2.675-1.105c0.939-0.306,1.919-0.564,2.936-0.724c1.015-0.162,2.061-0.268,3.124-0.268
								c1.063-0.001,2.141,0.078,3.22,0.241c1.077,0.176,2.127,0.432,3.138,0.759c1.012,0.326,1.975,0.748,2.891,1.213
								c0.918,0.464,1.772,1.01,2.572,1.59c0.803,0.576,1.535,1.213,2.207,1.872c1.35,1.317,2.421,2.768,3.261,4.21
								c0.829,1.449,1.414,2.898,1.81,4.254c0.789,2.723,0.806,5.04,0.667,6.588C73.394,130.023,73.121,130.847,73.035,130.832z"/>
						</g>
					</g>
				</g>
			</g>
		</g>
		<g>
			<g>
				<g>
					<g>
						<g>
							<path style="fill:#E0E0E0;" d="M53.878,139.591l-0.581,3.327l-2.97-0.519l0.565-3.237c-2.91-0.692-5.571-2.105-6.981-3.668
								l2.266-3.339c1.294,1.359,3.292,2.534,5.395,3.115l0.865-4.961c-3.157-1.377-6.649-3.119-5.907-7.367
								c0.55-3.149,3.309-5.452,8.095-5.168l0.576-3.298l2.971,0.518l-0.566,3.239c2.197,0.567,4.261,1.539,5.714,2.864
								l-2.123,3.395c-1.365-1.126-2.821-1.901-4.276-2.339l-0.881,5.051c3.162,1.347,6.594,3.08,5.863,7.268
								C61.365,137.562,58.641,139.841,53.878,139.591z M53.201,125.943l0.736-4.218c-1.636,0.081-2.41,0.834-2.582,1.815
								C51.173,124.579,51.966,125.299,53.201,125.943z M57.06,133.994c0.181-1.04-0.582-1.754-1.781-2.424l-0.716,4.1
								C56.106,135.603,56.894,134.945,57.06,133.994z"/>
						</g>
					</g>
				</g>
			</g>
		</g>
	</g>
	<g>
		<g>
			<polygon style="fill:#F5F5F5;" points="476.214,356.77 451.923,355.888 456.066,361.131 467.59,375.524 471.294,380.168 			"/>
		</g>
		<g>
			<g>
				<polygon style="fill:#F5F5F5;" points="337.179,437.034 326.288,425.77 374.647,387.968 383.086,404.694 421.873,373.595 
					431.097,387.114 466.219,358.261 472.491,364.417 427.746,404.355 418.4,386.424 379.094,422.711 371.731,403.627 				"/>
			</g>
		</g>
	</g>
	<g>
		<g>
			<polygon style="fill:#E0E0E0;" points="430.035,140.521 397.59,157.801 406.988,161.516 432.985,171.598 441.355,174.861 			"/>
		</g>
		<g>
			<g>
				<polygon style="fill:#E0E0E0;" points="309.067,351.026 286.273,344.556 320.846,258.408 344.579,273.884 371.717,203.768 
					394.042,214.452 418.092,150.055 430.968,153.348 402.743,239.549 376.91,223.185 353.029,300.482 328.914,281.104 				"/>
			</g>
		</g>
	</g>
</g>
<g id="Background_Simple" style="display:none;">
	<g style="display:inline;">
		<path style="fill:#F5F5F5;" d="M379.016,27.656l-1.937,0.354c-16.331,2.986-29.876,14.483-34.76,30.192
			c-0.628,2.019-1.11,4.084-1.435,6.18c-2.337,15.085,3.577,31.244,15.164,41.429c6.814,5.99,15.645,10.307,19.807,18.326
			c5.417,10.437,0.941,22.939-3.561,33.714c-4.502,10.775-8.949,23.297-3.486,33.711c3.422,6.522,10.206,10.77,17.256,13.039
			c18.664,6.01,39.885-0.495,54.202-13.602c14.317-13.108,22.33-31.916,25.524-51.022c4.476-26.766-0.262-55.653-16.091-77.97
			C433.871,39.688,406.291,25.043,379.016,27.656z"/>
	</g>
	<g style="display:inline;">
		<path style="fill:#F5F5F5;" d="M36.941,132.045l0.77,1.404c6.493,11.838,18.841,19.343,32.217,19.083
			c1.719-0.033,3.437-0.191,5.137-0.478c12.242-2.065,23.196-10.775,28.084-22.33c2.875-6.795,3.942-14.718,9.063-19.987
			c6.666-6.858,17.462-6.61,26.933-5.9c9.471,0.711,20.275,0.931,26.912-5.957c4.156-4.314,5.694-10.639,5.637-16.662
			c-0.149-15.946-10.612-30.656-24.401-38.343c-13.789-7.687-30.36-9.047-45.925-6.612c-21.805,3.411-42.884,14.477-56.049,32.418
			S27.928,111.665,36.941,132.045z"/>
	</g>
</g>
<g id="Floor">
	<g>
		<g>
			<path style="fill:#263238;" d="M477.425,473.485c0,0.144-102.799,0.26-229.578,0.26c-126.824,0-229.6-0.117-229.6-0.26
				c0-0.144,102.777-0.26,229.6-0.26C374.626,473.224,477.425,473.341,477.425,473.485z"/>
		</g>
	</g>
</g>
<g id="Chart_2">
	<g>
		<g>
			
				<rect x="285.403" y="432.872" transform="matrix(-1 -1.224647e-16 1.224647e-16 -1 595.4725 906.1155)" style="fill:#FF725E;" width="24.666" height="40.371"/>
		</g>
		<g>
			
				<rect x="384.875" y="404.754" transform="matrix(-1 -1.224647e-16 1.224647e-16 -1 794.4169 877.9973)" style="fill:#FF725E;" width="24.667" height="68.489"/>
		</g>
		<g>
			
				<rect x="434.611" y="448.361" transform="matrix(-1 -1.224647e-16 1.224647e-16 -1 893.8891 921.604)" style="fill:#FF725E;" width="24.667" height="24.882"/>
		</g>
		<g>
			
				<rect x="335.139" y="413.688" transform="matrix(-1 -1.224647e-16 1.224647e-16 -1 694.9447 886.9315)" style="fill:#FF725E;" width="24.667" height="59.555"/>
		</g>
		<g>
			
				<rect x="235.667" y="399.043" transform="matrix(-1 -1.224647e-16 1.224647e-16 -1 496 872.2863)" style="fill:#FF725E;" width="24.666" height="74.2"/>
		</g>
		<g>
			
				<rect x="185.931" y="377.795" transform="matrix(-1 -1.224647e-16 1.224647e-16 -1 396.5278 851.0386)" style="fill:#FF725E;" width="24.666" height="95.448"/>
		</g>
		<g>
			
				<rect x="136.194" y="354.133" transform="matrix(-1 -1.224647e-16 1.224647e-16 -1 297.0552 827.3764)" style="fill:#FF725E;" width="24.667" height="119.11"/>
		</g>
		<g>
			
				<rect x="86.458" y="322.041" transform="matrix(-1 -1.224647e-16 1.224647e-16 -1 197.583 795.2838)" style="fill:#FF725E;" width="24.667" height="151.203"/>
		</g>
		<g>
			
				<rect x="36.722" y="274.488" transform="matrix(-1 -1.224647e-16 1.224647e-16 -1 98.1109 747.7309)" style="fill:#FF725E;" width="24.666" height="198.755"/>
		</g>
	</g>
</g>
<g id="Arrows">
	<g>
		<g>
			<path style="fill:#EBEBEB;" d="M416.155,446.491c-7.853-15.346-24.485-25.794-41.719-26.205
				c10.458-11.57,12.517-29.467,6.486-43.85c-6.031-14.383-19.306-25.103-34.2-29.73c-14.894-4.627-31.196-3.538-46.039,1.247
				c1.722-11.246-9.525-22.469-20.767-20.723c4.395-3.04,5.895-9.588,3.262-14.238c-2.634-4.65-9.021-6.731-13.888-4.525
				l0.658-82.426h-16.242H237.19h-16.242l0.658,82.426c-4.868-2.206-11.255-0.125-13.888,4.525
				c-2.634,4.65-1.134,11.198,3.262,14.238c-11.242-1.746-22.489,9.477-20.767,20.723c-14.844-4.785-31.146-5.874-46.039-1.247
				c-14.894,4.627-28.169,15.347-34.2,29.73c-6.031,14.383-3.971,32.28,6.486,43.85c-17.234,0.411-33.866,10.859-41.719,26.205
				c-4.562,8.916-4.982,22.088,3.882,26.752H237.19h16.516h158.568C421.136,468.579,420.717,455.407,416.155,446.491z"/>
		</g>
		<g>
			<g>
				<path style="fill:#263238;" d="M78.622,473.243c0,0-0.404-0.235-1.19-0.717c-0.773-0.494-1.846-1.386-2.963-2.813
					c-1.085-1.452-2.071-3.534-2.588-6.154c-0.537-2.617-0.523-5.759,0.104-9.189c0.605-3.436,2.022-7.139,4.261-10.783
					c2.211-3.66,5.165-7.333,8.909-10.697c3.75-3.339,8.245-6.471,13.548-8.731c0.663-0.28,1.331-0.563,2.004-0.847
					c0.69-0.241,1.385-0.483,2.085-0.727c0.695-0.262,1.413-0.468,2.141-0.659c0.728-0.192,1.452-0.42,2.197-0.585
					c2.978-0.685,6.102-1.083,9.326-1.211l-0.113,0.263c-3.05-3.403-5.544-7.54-7.277-12.153c-1.699-4.624-2.609-9.726-2.619-14.995
					c0.038-5.266,0.932-10.722,2.994-15.94c1.021-2.605,2.278-5.167,3.827-7.595c1.516-2.445,3.268-4.794,5.261-6.975
					c7.898-8.776,19.176-15.351,31.908-17.839c6.348-1.301,13.009-1.626,19.723-1.157c6.714,0.521,13.483,1.867,20.126,3.992
					l-0.303,0.258c-0.4-2.656-0.088-5.452,0.856-8.055c0.939-2.607,2.479-5.029,4.45-7.076c1.971-2.045,4.383-3.729,7.088-4.806
					c2.696-1.078,5.708-1.519,8.642-1.063l-0.176,0.441c-4.246-2.94-6.014-9.279-3.51-14.217c2.525-4.913,9.15-7.303,14.378-4.974
					l-0.354,0.23c-0.212-26.252-0.437-53.926-0.667-82.426l-0.002-0.262h0.262c7.771,0,16.095,0,24.481-0.001
					c8.239,0,16.418,0,24.519,0.001h0.262l-0.002,0.262c-0.23,28.431-0.454,56.023-0.667,82.426l-0.354-0.23
					c5.134-2.287,11.647-0.043,14.281,4.78c2.603,4.846,1,11.339-3.412,14.412l-0.176-0.441c2.9-0.452,5.873-0.03,8.546,1.02
					c2.68,1.049,5.084,2.697,7.065,4.716c1.98,2.021,3.549,4.429,4.521,7.053c0.975,2.619,1.323,5.469,0.904,8.209l-0.303-0.258
					c6.642-2.124,13.407-3.47,20.116-3.991c6.708-0.469,13.363-0.148,19.705,1.15c12.719,2.478,23.987,9.036,31.89,17.794
					c1.996,2.175,3.743,4.524,5.267,6.962c1.554,2.422,2.807,4.985,3.838,7.585c1.073,2.591,1.732,5.287,2.275,7.947
					c0.483,2.677,0.724,5.353,0.744,7.992c0.007,5.275-0.909,10.383-2.599,15.023c-1.733,4.626-4.232,8.779-7.295,12.199
					l-0.113-0.263c3.229,0.128,6.357,0.529,9.339,1.214c0.746,0.167,1.471,0.395,2.199,0.587c0.729,0.19,1.447,0.399,2.143,0.661
					c0.701,0.245,1.397,0.487,2.087,0.728c0.673,0.285,1.342,0.568,2.005,0.849c5.307,2.263,9.802,5.403,13.552,8.745
					c3.744,3.367,6.695,7.043,8.903,10.704c2.235,3.645,3.646,7.348,4.246,10.783c0.626,3.428,0.633,6.567,0.094,9.18
					c-0.519,2.617-1.507,4.693-2.589,6.143c-1.118,1.423-2.188,2.313-2.96,2.805c-0.784,0.481-1.187,0.716-1.187,0.716
					s0.389-0.26,1.162-0.752c0.761-0.502,1.815-1.399,2.915-2.82c1.063-1.448,2.031-3.514,2.533-6.116
					c0.522-2.598,0.501-5.718-0.134-9.124c-0.612-3.416-2.021-7.081-4.258-10.706c-2.208-3.637-5.156-7.288-8.89-10.629
					c-3.74-3.316-8.218-6.43-13.5-8.669c-0.66-0.278-1.325-0.558-1.995-0.841c-0.687-0.238-1.379-0.478-2.077-0.72
					c-0.692-0.259-1.406-0.465-2.131-0.653c-0.724-0.19-1.445-0.415-2.187-0.58c-2.964-0.675-6.073-1.067-9.279-1.189l-0.337-0.013
					l0.223-0.25c3.03-3.395,5.499-7.515,7.211-12.104c1.668-4.603,2.569-9.672,2.555-14.905c-0.024-2.617-0.266-5.271-0.748-7.925
					c-0.542-2.637-1.198-5.309-2.266-7.875c-1.025-2.576-2.271-5.116-3.815-7.516c-1.514-2.416-3.25-4.745-5.233-6.901
					c-7.853-8.682-19.045-15.184-31.678-17.634c-6.3-1.285-12.915-1.599-19.585-1.127c-6.671,0.523-13.4,1.866-20.007,3.984
					l-0.36,0.116l0.057-0.374c0.403-2.656,0.066-5.422-0.885-7.974c-0.948-2.556-2.482-4.908-4.419-6.883
					c-1.937-1.973-4.287-3.581-6.898-4.601c-2.604-1.021-5.489-1.428-8.295-0.989l-1.051,0.164l0.875-0.606
					c4.198-2.907,5.742-9.182,3.255-13.774c-2.486-4.583-8.777-6.747-13.64-4.56l-0.357,0.161l0.003-0.391
					c0.208-26.403,0.425-53.994,0.649-82.426l0.26,0.262c-8.101,0-16.28,0-24.519,0.001c-8.386,0-16.71,0-24.481-0.001l0.26-0.262
					c0.224,28.5,0.442,56.174,0.649,82.426l0.003,0.391l-0.357-0.16c-4.953-2.227-11.352,0.077-13.732,4.745
					c-2.395,4.684-0.692,10.809,3.347,13.59l0.879,0.605l-1.055-0.164c-2.84-0.442-5.763-0.018-8.39,1.03
					c-2.635,1.047-4.994,2.691-6.921,4.688c-3.868,3.969-5.993,9.544-5.188,14.728l0.058,0.374l-0.361-0.116
					c-6.608-2.118-13.341-3.462-20.016-3.985c-6.675-0.471-13.296-0.154-19.602,1.133c-12.645,2.46-23.847,8.979-31.695,17.679
					c-1.98,2.162-3.72,4.49-5.227,6.914c-1.539,2.405-2.788,4.945-3.803,7.526c-2.049,5.167-2.943,10.578-2.988,15.801
					c0.003,5.227,0.898,10.289,2.576,14.877c1.712,4.576,4.176,8.68,7.193,12.059l0.224,0.25l-0.337,0.013
					c-3.201,0.122-6.305,0.512-9.266,1.187c-0.741,0.163-1.461,0.389-2.184,0.578c-0.724,0.189-1.438,0.392-2.129,0.651
					c-0.697,0.241-1.388,0.481-2.074,0.719c-0.67,0.282-1.334,0.561-1.994,0.839c-5.278,2.236-9.757,5.342-13.496,8.656
					c-3.734,3.338-6.684,6.986-8.896,10.622c-2.241,3.624-3.655,7.288-4.272,10.706c-0.636,3.408-0.664,6.532-0.144,9.133
					c0.5,2.605,1.466,4.677,2.532,6.127c1.099,1.426,2.155,2.324,2.918,2.828C78.232,472.982,78.622,473.243,78.622,473.243z"/>
			</g>
		</g>
		<g>
			<g>
				<polygon style="fill:#FF725E;" points="181.88,113.043 243.592,41.206 302.893,113.043 279.751,113.043 279.751,230.2 
					207.914,230.2 207.914,113.166 				"/>
			</g>
		</g>
		<g>
			<g>
				<g>
					<polygon style="fill:#FF725E;" points="474.976,229.772 431.29,243.198 441.897,249.893 471.285,268.181 480.742,274.088 					
						"/>
				</g>
				<g>
					<g>
						<polygon style="fill:#FF725E;" points="277.816,457.14 251.492,443.983 313.94,347.46 339.296,371.767 388.9,292.974 
							413.661,311.136 458.15,238.566 473.105,245.56 418.398,343.623 390.686,317.751 343.374,406.018 318.468,376.886 						"/>
					</g>
				</g>
			</g>
			<g style="opacity:0.3;">
				<g>
					<path d="M303.588,432.262c-5.989-3.97-13.741-4.403-20.79-3.012c-2.33,0.46-4.911,1.064-6.949-0.155
						c-2.022-1.21-2.714-3.74-3.521-5.955c-4.123-11.321-15.422-19.079-27.306-21.056c-11.885-1.977-21.43-1.027-32.203,4.368
						c-6.43,3.22-13.072,7.724-18.714,16.127c-1.619,2.41-4.547,7.316-4.547,7.316c-2.151,1.587-5.004,1.695-7.643,2.124
						c-10.898,1.775-20.296,10.626-22.721,21.397l151.06-2.454C313.091,444.362,309.577,436.232,303.588,432.262z"/>
				</g>
			</g>
			<g>
				<g>
					<path style="fill:#EBEBEB;" d="M150.916,463.275c4.721-16.723,23.339-28.201,40.4-24.908
						c3.598-18.198,21.047-32.65,39.597-32.795c18.55-0.145,36.223,14.032,40.104,32.172c10.251-2.36,21.276-4.117,31.063-0.261
						c9.787,3.856,17.283,15.326,13.233,25.035"/>
				</g>
				<g>
					<g>
						<path style="fill:#263238;" d="M315.314,462.519c-0.006-0.003,0.02-0.099,0.077-0.287c0.065-0.204,0.151-0.477,0.263-0.831
							c0.123-0.364,0.28-0.814,0.358-1.377c0.094-0.557,0.266-1.193,0.271-1.937c0.255-2.911-0.441-7.462-3.64-11.979
							c-1.579-2.24-3.734-4.448-6.479-6.271c-2.72-1.872-6.143-3.075-9.866-3.794c-3.741-0.676-7.814-0.769-12.049-0.365
							c-4.24,0.386-8.639,1.249-13.18,2.294l-0.228,0.053l-0.052-0.231c-1.622-7.187-5.511-14.456-11.55-20.195
							c-5.986-5.728-13.985-10.086-22.856-11.356c-5.522-0.774-11.129-0.343-16.239,1.304c-5.123,1.599-9.793,4.161-13.779,7.314
							c-3.987,3.156-7.313,6.9-9.802,10.941c-2.495,4.038-4.174,8.352-5.032,12.609l-0.043,0.213l-0.214-0.04
							c-3.813-0.719-7.573-0.673-11.054-0.141c-1.755,0.213-3.41,0.7-5.023,1.125c-0.789,0.275-1.566,0.547-2.332,0.814
							c-0.775,0.244-1.478,0.636-2.203,0.938c-1.462,0.589-2.743,1.423-4.04,2.111c-0.61,0.408-1.209,0.809-1.796,1.203
							c-0.293,0.197-0.584,0.393-0.872,0.586c-0.278,0.207-0.54,0.43-0.806,0.64c-0.53,0.426-1.049,0.843-1.557,1.251
							c-0.503,0.414-0.94,0.881-1.397,1.303c-0.444,0.437-0.904,0.837-1.304,1.275c-0.391,0.446-0.772,0.881-1.143,1.305
							c-2.935,3.43-4.573,6.615-5.534,8.819c-0.485,1.103-0.73,2-0.961,2.578c-0.211,0.587-0.337,0.885-0.337,0.885
							s0.327-1.248,1.174-3.514c0.926-2.229,2.537-5.453,5.464-8.932c0.371-0.43,0.751-0.871,1.141-1.324
							c0.4-0.444,0.86-0.851,1.304-1.294c0.458-0.429,0.895-0.902,1.399-1.323c0.509-0.415,1.029-0.838,1.561-1.271
							c0.268-0.214,0.53-0.44,0.809-0.65c0.289-0.197,0.581-0.396,0.875-0.596c0.59-0.4,1.192-0.808,1.805-1.223
							c1.303-0.701,2.593-1.549,4.065-2.152c0.73-0.309,1.438-0.707,2.219-0.958c0.772-0.273,1.556-0.551,2.352-0.833
							c1.628-0.437,3.3-0.936,5.074-1.158c3.519-0.552,7.329-0.612,11.199,0.106l-0.256,0.172c0.855-4.313,2.543-8.682,5.059-12.773
							c2.509-4.094,5.865-7.885,9.893-11.083c4.028-3.194,8.75-5.793,13.938-7.415c5.174-1.671,10.865-2.113,16.464-1.327
							c8.994,1.288,17.085,5.706,23.134,11.506c6.102,5.812,10.03,13.177,11.655,20.463l-0.28-0.178
							c4.553-1.036,8.975-1.892,13.246-2.268c4.265-0.393,8.378-0.285,12.159,0.414c3.759,0.741,7.228,1.979,9.981,3.894
							c2.774,1.864,4.94,4.113,6.522,6.392c3.204,4.594,3.864,9.214,3.559,12.15c-0.018,0.75-0.203,1.39-0.309,1.949
							c-0.091,0.564-0.26,1.014-0.396,1.376c-0.128,0.35-0.226,0.62-0.3,0.822C315.357,462.43,315.319,462.522,315.314,462.519z"/>
					</g>
				</g>
			</g>
		</g>
	</g>
</g>
<g id="Chart_1">
	<g>
		<g>
			<g>
				<g>
					<g>
						<g>
							<path style="fill:#E0E0E0;" d="M221.257,205.862c0.642,40.166-31.364,73.369-71.345,74.015
								c-39.982,0.645-73.033-31.508-73.675-71.674c-0.642-40.167,31.364-73.369,71.345-74.015
								C187.565,133.542,220.615,165.696,221.257,205.862z M114.078,207.591c0.307,19.204,16.11,34.579,35.226,34.27
								c19.117-0.309,34.42-16.184,34.113-35.389c-0.307-19.205-16.11-34.578-35.227-34.27
								C129.074,172.511,113.771,188.387,114.078,207.591z"/>
						</g>
					</g>
				</g>
			</g>
			<g>
				<g>
					<g>
						<g>
							<path style="fill:#455A64;" d="M221.257,205.861c0.642,40.167-31.363,73.369-71.344,74.014l-0.608-38.014
								c19.117-0.309,34.42-16.185,34.113-35.39c-0.307-19.204-16.11-34.578-35.227-34.269l-0.608-38.014
								C187.565,133.543,220.615,165.695,221.257,205.861z"/>
							<path style="fill:#455A64;" d="M149.42,280.383l-0.624-39.013l0.5-0.008c18.842-0.305,33.924-15.953,33.621-34.882
								c-0.146-9.155-3.843-17.714-10.408-24.101c-6.564-6.386-15.184-9.811-24.311-9.676l-0.5,0.008l-0.624-39.014l0.5-0.008
								c19.484-0.314,37.92,7.028,51.947,20.674c14.026,13.645,21.923,31.932,22.236,51.491
								c0.646,40.442-31.579,73.873-71.837,74.522L149.42,280.383z M149.812,242.35l0.592,37.016
								c39.472-0.908,70.988-33.773,70.353-73.497c-0.309-19.293-8.098-37.331-21.933-50.79
								c-13.715-13.343-31.717-20.571-50.733-20.397l0.592,37.017c9.166-0.012,17.887,3.507,24.523,9.963
								c6.756,6.573,10.56,15.381,10.711,24.802C184.226,225.777,168.971,241.771,149.812,242.35z"/>
						</g>
					</g>
				</g>
			</g>
			<g>
				<g id="XMLID_00000094579858673664603630000015149019927310354620_">
					<g>
						<g>
							<path style="fill:#FF725E;" d="M156.423,285.722c-46.775,0.755-84.09-35.547-84.841-82.538l44.27-0.714
								c0.359,22.468,17.455,36.614,39.82,36.253L156.423,285.722z"/>
						</g>
					</g>
				</g>
			</g>
		</g>
		<g>
			<g>
				<g>
					<path style="fill:#263238;" d="M97.014,203.95c0.281,0.194-3.904,6.755-9.346,14.654c-5.444,7.901-10.084,14.147-10.365,13.954
						c-0.281-0.194,3.903-6.754,9.347-14.655C92.092,210.004,96.733,203.757,97.014,203.95z"/>
				</g>
			</g>
		</g>
		<g>
			<g>
				<g>
					<path style="fill:#263238;" d="M116.259,207.655c0.281,0.194-5.909,9.665-13.824,21.152
						c-7.918,11.491-14.562,20.646-14.843,20.452c-0.281-0.193,5.908-9.663,13.825-21.154
						C109.332,216.618,115.978,207.461,116.259,207.655z"/>
				</g>
			</g>
		</g>
		<g>
			<g>
				<g>
					<path style="fill:#263238;" d="M125.624,227.338c0.281,0.194-5.291,8.769-12.444,19.15
						c-7.156,10.385-13.182,18.644-13.464,18.45c-0.281-0.194,5.29-8.767,12.446-19.152
						C119.315,235.405,125.343,227.144,125.624,227.338z"/>
				</g>
			</g>
		</g>
		<g>
			<g>
				<g>
					<path style="fill:#263238;" d="M141.922,238.225c0.281,0.194-5.291,8.769-12.444,19.15
						c-7.156,10.385-13.182,18.644-13.464,18.451c-0.281-0.194,5.29-8.767,12.446-19.152
						C135.613,246.293,141.641,238.032,141.922,238.225z"/>
				</g>
			</g>
		</g>
		<g>
			<g>
				<g>
					<path style="fill:#263238;" d="M155.884,252.044c0.281,0.194-4.272,7.289-10.168,15.846
						c-5.898,8.56-10.906,15.34-11.187,15.146c-0.281-0.194,4.271-7.287,10.169-15.848
						C150.594,258.632,155.603,251.851,155.884,252.044z"/>
				</g>
			</g>
		</g>
	</g>
</g>
<g id="Character_00000145059478603984560980000002040173561819326343_">
	<g>
		<g>
			<g>
				<g>
					<g>
						<path style="fill:#FFBF9D;" d="M386.764,67.157c0,0,4.367-10.061,4.581-11.636c0.214-1.575-0.227-5.072-1.358-6.027
							c-1.13-0.956-2.593-1.154-3.6-0.489c0,0-0.16-2.198-2.394-2.617c-2.234-0.418-2.172,1.653-2.172,1.653
							s0.103-1.534-1.521-1.944c-0.794-0.2-1.699,0.255-1.699,0.255s-2.135-1.902-3.555-0.72
							c-1.421,1.182,0.216,19.506,0.216,19.506L386.764,67.157z"/>
					</g>
					<g>
						<g>
							<path style="fill:#FFBF9D;" d="M374.972,63.035c0,0-3.899-6.716-3.88-8.547c0.02-1.83,2.213-5.98,3.429-6.502
								c1.217-0.522,6.036-1.606,6.036-1.606s1.966,1.848-0.943,3.679l-3.359,1.89c0,0,5.363,1.793,5.192,7.269"/>
						</g>
						<g>
							<g>
								<path style="fill:#FF9A6C;" d="M381.448,59.217c-0.089,0.008,0.029-0.975-0.497-2.533c-0.287-0.764-0.777-1.648-1.575-2.466
									c-0.789-0.811-1.891-1.574-3.19-2.062l-0.444-0.167l0.406-0.233c1.059-0.608,2.2-1.263,3.405-1.954
									c0.556-0.353,1.087-0.84,1.309-1.443c0.225-0.596-0.014-1.317-0.482-1.792l0.233,0.064
									c-0.825,0.196-1.694,0.403-2.577,0.613c-0.687,0.171-1.365,0.344-2.026,0.529c-0.329,0.094-0.658,0.188-0.971,0.295
									c-0.157,0.052-0.315,0.107-0.447,0.171c-0.116,0.058-0.233,0.146-0.348,0.249c-0.896,0.881-1.526,2.05-2.047,3.127
									c-0.255,0.548-0.483,1.095-0.647,1.639c-0.155,0.54-0.298,1.088-0.209,1.566c0.211,1.019,0.638,1.965,1.002,2.807
									c0.759,1.689,1.456,3.023,1.925,3.95c0.473,0.925,0.733,1.439,0.702,1.457c-0.031,0.018-0.35-0.462-0.88-1.36
									c-0.526-0.899-1.273-2.209-2.082-3.893c-0.39-0.851-0.84-1.768-1.094-2.889c-0.114-0.611,0.044-1.196,0.196-1.769
									c0.165-0.575,0.393-1.141,0.65-1.709c0.537-1.126,1.131-2.295,2.141-3.305c0.134-0.122,0.283-0.239,0.471-0.333
									c0.171-0.082,0.335-0.138,0.5-0.194c0.33-0.113,0.661-0.209,0.996-0.306c0.67-0.19,1.351-0.365,2.041-0.536
									c0.887-0.21,1.76-0.416,2.589-0.612l0.137-0.032l0.096,0.096c0.603,0.603,0.903,1.524,0.606,2.335
									c-0.304,0.788-0.916,1.304-1.529,1.692c-1.22,0.68-2.375,1.324-3.448,1.921l-0.038-0.399
									c1.394,0.55,2.495,1.357,3.309,2.232c0.813,0.878,1.295,1.824,1.556,2.63c0.113,0.41,0.218,0.774,0.242,1.103
									c0.046,0.325,0.078,0.601,0.061,0.827C381.486,58.982,381.471,59.218,381.448,59.217z"/>
							</g>
						</g>
					</g>
					<g>
						<g>
							<path style="fill:#FFBF9D;" d="M381.424,48.127c-0.542,1.947-0.739,3.99-0.576,6.005c0.055,0.684,0.174,1.414,0.648,1.91
								c0.451,0.471,1.164,0.636,1.806,0.515c0.641-0.12,1.214-0.494,1.673-0.957"/>
						</g>
						<g>
							<g>
								<path style="fill:#FF9A6C;" d="M384.975,55.6c0.037,0.015-0.323,0.688-1.436,1.091c-0.548,0.176-1.338,0.191-2.015-0.301
									c-0.697-0.518-0.888-1.464-0.94-2.284c-0.276-3.4,0.725-6.039,0.839-5.978c0.157,0.034-0.59,2.657-0.32,5.938
									c0.05,0.805,0.222,1.56,0.716,1.946c0.491,0.39,1.144,0.438,1.624,0.325C384.438,56.078,384.917,55.519,384.975,55.6z"/>
							</g>
						</g>
					</g>
					<g>
						<g>
							<path style="fill:#FFBF9D;" d="M377.131,51.75c-0.339,0.873-0.217,1.256-0.164,2.191c0.053,0.935,0.618,1.911,1.529,2.13
								c0.76,0.182,1.744-0.835,2.19-1.889"/>
						</g>
						<g>
							<g>
								<path style="fill:#FF9A6C;" d="M380.686,54.181c0.057,0.019-0.025,0.497-0.467,1.129c-0.227,0.306-0.526,0.674-1.038,0.915
									c-0.241,0.121-0.631,0.156-0.915,0.043c-0.292-0.094-0.561-0.273-0.783-0.496c-0.446-0.453-0.656-1.026-0.726-1.545
									c-0.038-0.527-0.05-0.919-0.039-1.319c0.051-0.793,0.369-1.183,0.413-1.158c0.085,0.028-0.094,0.467-0.045,1.155
									c0.051,0.435,0.099,0.848,0.145,1.25c0.081,0.431,0.275,0.903,0.622,1.251c0.172,0.172,0.368,0.306,0.578,0.379
									c0.213,0.08,0.363,0.065,0.567-0.004c0.384-0.151,0.699-0.451,0.935-0.702C380.408,54.559,380.611,54.148,380.686,54.181z"
									/>
							</g>
						</g>
					</g>
					<g>
						<g>
							<path style="fill:#FFBF9D;" d="M386.746,49.119c-1.095,1.187-1.901,2.639-2.328,4.197c-0.224,0.817-0.296,1.817,0.33,2.387
								c0.657,0.598,1.723,0.375,2.477-0.095c1.143-0.713,1.967-1.919,2.216-3.243"/>
						</g>
						<g>
							<g>
								<path style="fill:#FF9A6C;" d="M389.44,52.365c0.051-0.005,0.065,0.857-0.645,1.989c-0.358,0.554-0.9,1.153-1.685,1.594
									c-0.398,0.21-0.86,0.37-1.379,0.37c-0.51,0.011-1.112-0.234-1.422-0.734c-0.316-0.495-0.34-1.056-0.29-1.535
									c0.051-0.489,0.192-0.929,0.331-1.333c0.285-0.814,0.652-1.502,1.005-2.045c0.715-1.087,1.35-1.594,1.391-1.552
									c0.063,0.056-0.466,0.646-1.075,1.742c-0.301,0.548-0.618,1.223-0.866,2.007c-0.122,0.394-0.241,0.806-0.278,1.231
									c-0.04,0.422,0.001,0.868,0.218,1.2c0.448,0.706,1.478,0.572,2.145,0.222c0.7-0.363,1.237-0.891,1.603-1.378
									C389.229,53.149,389.352,52.34,389.44,52.365z"/>
							</g>
						</g>
					</g>
				</g>
				<g>
					<g>
						<path style="fill:#263238;" d="M332.471,131.589c0,0,5.42-5.846,7.555-7.158c2.135-1.311,16.243-18.119,17.733-22.542
							c1.491-4.423,15.323-39.933,15.039-39.453c-0.237,0.4,17.561,3.759,17.561,3.759s-13.253,40.95-14.865,45.635
							c-2.921,8.489-17.391,25.681-25.638,35.99c-3.512,4.39-8.372,18.446-8.372,18.446L332.471,131.589z"/>
					</g>
					<g>
						<g>
							<path style="fill:#455A64;" d="M345.393,153.639c-0.067,0.008-0.289-1.214-0.514-3.209c-0.226-1.994-0.436-4.762-0.49-7.825
								c-0.051-3.064,0.064-5.838,0.221-7.838c0.156-2.001,0.336-3.23,0.403-3.224c0.076,0.006,0.027,1.245-0.035,3.244
								c-0.063,1.999-0.119,4.76-0.068,7.81c0.054,3.048,0.205,5.806,0.336,7.801C345.376,152.394,345.468,153.63,345.393,153.639z"
								/>
						</g>
					</g>
				</g>
			</g>
			<g>
				<g>
					<g>
						<g>
							<g>
								<g>
									<g>
										<g>
											<g>
												<g>
													<g>
														<g>
															<path style="fill:#455A64;" d="M256.032,362.358l-7.618,15.527l-0.971,3.803c0,0,5.084,23.076,1.906,25.351
																l-22.677-36.607l5.844-3.681l7.262-15.518L256.032,362.358z"/>
														</g>
													</g>
												</g>
											</g>
										</g>
									</g>
								</g>
							</g>
						</g>
					</g>
					<g>
						<g>
							<g>
								<g>
									<g>
										<g>
											<g>
												<g>
													<g>
														<g>
															<path style="fill:#263238;" d="M226.67,370.432l2.871-1.647l20.669,35.714c0,0,0.338,2.048-0.863,2.54
																L226.67,370.432z"/>
														</g>
													</g>
												</g>
											</g>
										</g>
									</g>
								</g>
							</g>
						</g>
					</g>
					<g>
						<g>
							<g>
								<g>
									<g>
										<g>
											<g>
												<g>
													<g>
														<g>
															<g>
																<path style="fill:#263238;" d="M247.985,382.172c-0.173,0.1-0.803-0.747-1.892-1.287
																	c-1.077-0.569-2.091-0.566-2.125-0.773c-0.069-0.185,1.107-0.548,2.416,0.13
																	C247.697,380.907,248.165,382.114,247.985,382.172z"/>
															</g>
														</g>
													</g>
												</g>
											</g>
										</g>
									</g>
								</g>
							</g>
						</g>
					</g>
					<g>
						<g>
							<g>
								<g>
									<g>
										<g>
											<g>
												<g>
													<g>
														<g>
															<g>
																<path style="fill:#263238;" d="M248.86,386.947c-0.138,0.143-0.906-0.452-1.998-0.614
																	c-1.089-0.194-1.958,0.134-2.061-0.048c-0.131-0.151,0.784-0.892,2.139-0.665
																	C248.297,385.835,249.019,386.843,248.86,386.947z"/>
															</g>
														</g>
													</g>
												</g>
											</g>
										</g>
									</g>
								</g>
							</g>
						</g>
					</g>
					<g>
						<g>
							<g>
								<g>
									<g>
										<g>
											<g>
												<g>
													<g>
														<g>
															<g>
																<path style="fill:#263238;" d="M245.86,391.836c-0.137-0.14,0.555-0.915,1.766-1.033
																	c1.21-0.127,2.098,0.488,2.004,0.652c-0.077,0.188-0.91-0.046-1.902,0.067
																	C246.733,391.61,245.987,392.003,245.86,391.836z"/>
															</g>
														</g>
													</g>
												</g>
											</g>
										</g>
									</g>
								</g>
							</g>
						</g>
					</g>
				</g>
				<g>
					<g>
						<g>
							<g>
								<path style="fill:#263238;" d="M333.723,248.106c-0.748,1.768-39.008,60.338-46.856,66.846
									c-7.848,6.508-34.639,59.931-34.639,59.931s-21.887-10.618-22.376-9.463c-0.488,1.154,15.35-37.712,24.797-53.67
									c9.447-15.958,13.857-22.134,13.857-22.134l18.8-50.122c0,0,0.389-16.513,2.806-22.936c2.417-6.423,9.49-12.004,9.49-12.004
									L333.723,248.106z"/>
							</g>
						</g>
					</g>
				</g>
				<g>
					<g>
						<g>
							<g>
								<g>
									<g>
										<g>
											<g>
												<g>
													<g>
														<g>
															<path style="fill:#455A64;" d="M299.257,318.885l-20.342,1.46c0,0-5.229,22.297-8.96,22.953l-4.474-41.496
																l31.595-3.647L299.257,318.885z"/>
														</g>
													</g>
												</g>
											</g>
										</g>
									</g>
								</g>
							</g>
						</g>
					</g>
					<g>
						<g>
							<g>
								<g>
									<g>
										<g>
											<g>
												<g>
													<g>
														<g>
															<g>
																<path style="fill:#E0E0E0;" d="M279.236,307.327c-0.295-0.78-1.21-1.241-1.96-0.97
																	c-0.749,0.271-1.193,1.244-0.911,2.029c0.281,0.785,1.365,1.374,2.08,1.016c0.715-0.358,1.176-1.531,0.725-2.224"/>
															</g>
														</g>
													</g>
												</g>
											</g>
										</g>
									</g>
								</g>
							</g>
						</g>
					</g>
					<g>
						<g>
							<g>
								<g>
									<g>
										<g>
											<g>
												<g>
													<g>
														<g>
															<path style="fill:#263238;" d="M265.48,301.803l3.2-0.236l3.094,39.874c0,0-0.563,1.931-1.819,1.858L265.48,301.803z
																"/>
														</g>
													</g>
												</g>
											</g>
										</g>
									</g>
								</g>
							</g>
						</g>
					</g>
					<g>
						<g>
							<g>
								<g>
									<g>
										<g>
											<g>
												<g>
													<g>
														<g>
															<g>
																<path style="fill:#263238;" d="M279.187,320.996c-0.193,0.015-0.389-0.989-1.114-1.918
																	c-0.702-0.949-1.59-1.371-1.533-1.566c0.017-0.191,1.198-0.015,2.057,1.126
																	C279.465,319.77,279.368,321.021,279.187,320.996z"/>
															</g>
														</g>
													</g>
												</g>
											</g>
										</g>
									</g>
								</g>
							</g>
						</g>
					</g>
					<g>
						<g>
							<g>
								<g>
									<g>
										<g>
											<g>
												<g>
													<g>
														<g>
															<g>
																<path style="fill:#263238;" d="M277.95,325.536c-0.181,0.067-0.602-0.775-1.489-1.374
																	c-0.87-0.626-1.767-0.703-1.781-0.906c-0.051-0.187,1.059-0.451,2.148,0.316
																	C277.924,324.328,278.133,325.512,277.95,325.536z"/>
															</g>
														</g>
													</g>
												</g>
											</g>
										</g>
									</g>
								</g>
							</g>
						</g>
					</g>
					<g>
						<g>
							<g>
								<g>
									<g>
										<g>
											<g>
												<g>
													<g>
														<g>
															<g>
																<path style="fill:#263238;" d="M273.28,328.551c-0.061-0.179,0.868-0.567,1.976-0.163
																	c1.111,0.396,1.629,1.306,1.478,1.41c-0.146,0.132-0.776-0.421-1.691-0.739
																	C274.137,328.719,273.32,328.75,273.28,328.551z"/>
															</g>
														</g>
													</g>
												</g>
											</g>
										</g>
									</g>
								</g>
							</g>
						</g>
					</g>
					<g>
						<g>
							<g>
								<g>
									<g>
										<g>
											<g>
												<g>
													<g>
														<g>
															<g>
																<path style="fill:#263238;" d="M283.783,320.121c-0.184-0.065-0.02-1.024-0.217-2.161
																	c-0.175-1.141-0.636-1.992-0.482-2.116c0.126-0.133,0.931,0.659,1.145,2.002
																	C284.454,319.186,283.945,320.204,283.783,320.121z"/>
															</g>
														</g>
													</g>
												</g>
											</g>
										</g>
									</g>
								</g>
							</g>
						</g>
					</g>
				</g>
				<g>
					<path style="fill:#263238;" d="M281.443,232.754c0,0-0.055,19.513,8.802,26.108s39.583,31.384,39.583,31.384l-49.045,8.385
						l3.665,22.742c0,0,66.21-6.68,74.314-9.393s13.932-16.418,7.588-25.946c-3.186-4.785-36.146-51.641-36.146-51.641
						l-0.989-12.576l-41.551,2.627L281.443,232.754z"/>
				</g>
				<g>
					<g>
						<path style="fill:#455A64;" d="M284.448,321.373c-0.01,0.001-0.041-0.133-0.093-0.398c-0.054-0.292-0.126-0.681-0.217-1.175
							c-0.184-1.066-0.447-2.585-0.781-4.523c-0.659-3.961-1.603-9.633-2.765-16.615l-0.032-0.189l0.191-0.033
							c11.786-2.033,27.527-4.747,44.78-7.723c1.457-0.249,2.904-0.496,4.254-0.727l-0.122,0.456
							c-6.91-5.71-13.487-11.083-19.475-15.917c-3.006-2.399-5.857-4.674-8.523-6.801c-2.667-2.113-5.232-4.001-7.353-5.985
							c-4.258-3.947-7.052-7.749-8.737-10.486c-0.846-1.371-1.41-2.488-1.77-3.253c-0.182-0.382-0.303-0.681-0.383-0.882
							c-0.079-0.202-0.111-0.308-0.103-0.311c0.008-0.003,0.056,0.096,0.15,0.291c0.095,0.194,0.231,0.485,0.427,0.858
							c0.387,0.748,0.976,1.845,1.844,3.194c1.729,2.693,4.55,6.439,8.813,10.326c2.12,1.952,4.683,3.812,7.371,5.918
							c2.692,2.095,5.554,4.36,8.558,6.766c6.008,4.813,12.597,10.174,19.512,15.883l0.437,0.361l-0.559,0.096
							c-1.35,0.231-2.796,0.478-4.253,0.728c-17.262,2.925-33.01,5.594-44.803,7.592l0.159-0.222
							c1.09,6.993,1.976,12.675,2.595,16.642c0.291,1.945,0.519,3.469,0.679,4.54c0.068,0.498,0.122,0.89,0.163,1.184
							C284.445,321.234,284.458,321.371,284.448,321.373z"/>
					</g>
				</g>
				<g>
					<g>
						<path style="fill:#455A64;" d="M343.063,291.655c-0.045,0.153-2.913-0.695-6.556-1.071c-3.642-0.398-6.623-0.173-6.635-0.332
							c-0.006-0.066,0.733-0.208,1.946-0.292c1.211-0.085,2.897-0.089,4.744,0.106c1.846,0.198,3.493,0.556,4.66,0.894
							C342.39,291.297,343.083,291.592,343.063,291.655z"/>
					</g>
				</g>
			</g>
			<g>
				<g>
					<g>
						<g>
							<g>
								<g>
									<g>
										<g>
											<g>
												<g>
													<g>
														<path style="fill:#263238;" d="M312.777,69.025c0.553-1.809,2.361-3.148,4.245-3.142
															c1.83-2.093,5.182-2.636,7.581-1.228c1.439-1.255,3.55-1.681,5.362-1.081c1.813,0.599,3.263,2.202,3.686,4.073
															c1.822-0.641,4.021,0.015,5.203,1.553c1.183,1.538,1.26,3.842,0.183,5.452c2.164,0.296,3.931,2.4,3.86,4.594
															c-0.071,2.194-1.972,4.17-4.149,4.315l-24.217-9.529C312.971,72.967,312.224,70.834,312.777,69.025z"/>
													</g>
												</g>
											</g>
										</g>
									</g>
								</g>
							</g>
						</g>
					</g>
				</g>
				<g>
					<g>
						<g>
							<g>
								<g>
									<g>
										<g>
											<g>
												<g>
													<g>
														<g>
															<g>
																<g>
																	<g>
																		<path style="fill:#FFBF9D;" d="M339.497,84.062c-2.543-9.575-11.969-15.593-21.66-13.833l-0.963,0.175
																			c-10.272,2.496-11.801,12.707-9.015,22.968l7.953,38.58l0,0l19.1,11.345l2.297-8.422l-0.024-13.745
																			c0,0,9.698-3.374,7.999-13.435C344.362,102.836,341.862,92.967,339.497,84.062z"/>
																	</g>
																</g>
															</g>
														</g>
													</g>
												</g>
											</g>
										</g>
									</g>
								</g>
							</g>
						</g>
						<g>
							<g>
								<g>
									<g>
										<g>
											<g>
												<g>
													<g>
														<g>
															<g>
																<g>
																	<g>
																		<g>
																			<g>
																				<path style="fill:#FF9A6C;" d="M337.264,121.101c0,0-6.303,1.543-13.776-1.474c0,0,3.907,7.22,13.701,4.507
																					L337.264,121.101z"/>
																			</g>
																		</g>
																	</g>
																</g>
															</g>
														</g>
													</g>
												</g>
											</g>
										</g>
									</g>
								</g>
							</g>
						</g>
						<g>
							<g>
								<g>
									<g>
										<g>
											<g>
												<g>
													<g>
														<g>
															<g>
																<g>
																	<g>
																		<g>
																			<g>
																				<g>
																					<g>
																						<g>
																							<path style="fill:#263238;" d="M338.264,93.517c0.164,0.752-0.334,1.511-1.112,1.696
																								c-0.776,0.185-1.54-0.273-1.703-1.025c-0.164-0.752,0.333-1.512,1.11-1.697
																								C337.336,92.305,338.1,92.765,338.264,93.517z"/>
																						</g>
																					</g>
																				</g>
																			</g>
																		</g>
																	</g>
																</g>
															</g>
														</g>
													</g>
												</g>
											</g>
										</g>
									</g>
								</g>
							</g>
						</g>
						<g>
							<g>
								<g>
									<g>
										<g>
											<g>
												<g>
													<g>
														<g>
															<g>
																<g>
																	<g>
																		<g>
																			<g>
																				<g>
																					<g>
																						<g>
																							<g>
																								<path style="fill:#263238;" d="M338.447,89.853c-0.142,0.219-1.368-0.389-2.901-0.106
																									c-1.535,0.26-2.517,1.258-2.717,1.1c-0.097-0.069,0.022-0.439,0.447-0.887
																									c0.417-0.445,1.177-0.942,2.133-1.112c0.956-0.168,1.824,0.039,2.352,0.318
																									C338.299,89.444,338.52,89.753,338.447,89.853z"/>
																							</g>
																						</g>
																					</g>
																				</g>
																			</g>
																		</g>
																	</g>
																</g>
															</g>
														</g>
													</g>
												</g>
											</g>
										</g>
									</g>
								</g>
							</g>
						</g>
						<g>
							<g>
								<g>
									<g>
										<g>
											<g>
												<g>
													<g>
														<g>
															<g>
																<g>
																	<g>
																		<g>
																			<g>
																				<g>
																					<g>
																						<g>
																							<path style="fill:#263238;" d="M324.871,96.542c0.164,0.752-0.334,1.51-1.112,1.696
																								c-0.776,0.185-1.54-0.273-1.704-1.026c-0.164-0.752,0.334-1.512,1.11-1.697
																								C323.943,95.33,324.707,95.79,324.871,96.542z"/>
																						</g>
																					</g>
																				</g>
																			</g>
																		</g>
																	</g>
																</g>
															</g>
														</g>
													</g>
												</g>
											</g>
										</g>
									</g>
								</g>
							</g>
						</g>
						<g>
							<g>
								<g>
									<g>
										<g>
											<g>
												<g>
													<g>
														<g>
															<g>
																<g>
																	<g>
																		<g>
																			<g>
																				<g>
																					<g>
																						<g>
																							<g>
																								<path style="fill:#263238;" d="M323.737,92.303c-0.143,0.219-1.37-0.388-2.902-0.105
																									c-1.535,0.26-2.517,1.258-2.717,1.1c-0.097-0.069,0.02-0.439,0.447-0.887
																									c0.418-0.445,1.177-0.942,2.133-1.112c0.956-0.168,1.824,0.04,2.352,0.318
																									C323.586,91.895,323.808,92.204,323.737,92.303z"/>
																							</g>
																						</g>
																					</g>
																				</g>
																			</g>
																		</g>
																	</g>
																</g>
															</g>
														</g>
													</g>
												</g>
											</g>
										</g>
									</g>
								</g>
							</g>
						</g>
						<g>
							<g>
								<g>
									<g>
										<g>
											<g>
												<g>
													<g>
														<g>
															<g>
																<g>
																	<g>
																		<g>
																			<g>
																				<g>
																					<g>
																						<g>
																							<path style="fill:#263238;" d="M330.864,102.819c-0.023-0.087,0.9-0.426,2.409-0.905
																								c0.384-0.112,0.741-0.257,0.758-0.538c0.04-0.301-0.2-0.696-0.473-1.12
																								c-0.541-0.886-1.108-1.815-1.703-2.789c-2.384-3.978-4.185-7.278-4.026-7.373
																								c0.16-0.094,2.222,3.053,4.606,7.031c0.578,0.983,1.131,1.92,1.657,2.816
																								c0.229,0.421,0.577,0.882,0.484,1.509c-0.052,0.313-0.301,0.579-0.539,0.693
																								c-0.237,0.123-0.457,0.167-0.648,0.214C331.849,102.723,330.886,102.905,330.864,102.819z"/>
																						</g>
																					</g>
																				</g>
																			</g>
																		</g>
																	</g>
																</g>
															</g>
														</g>
													</g>
												</g>
											</g>
										</g>
									</g>
								</g>
							</g>
						</g>
						<g>
							<g>
								<g>
									<g>
										<g>
											<g>
												<g>
													<g>
														<g>
															<g>
																<g>
																	<g>
																		<g>
																			<g>
																				<g>
																					<g>
																						<g>
																							<path style="fill:#263238;" d="M326.544,104.706c0.247-0.06,0.554,1.614,2.195,2.543
																								c1.639,0.934,3.379,0.424,3.435,0.655c0.042,0.101-0.336,0.397-1.082,0.554
																								c-0.73,0.159-1.846,0.116-2.85-0.452c-1.001-0.571-1.552-1.476-1.733-2.152
																								C326.318,105.165,326.429,104.716,326.544,104.706z"/>
																						</g>
																					</g>
																				</g>
																			</g>
																		</g>
																	</g>
																</g>
															</g>
														</g>
													</g>
												</g>
											</g>
										</g>
									</g>
								</g>
							</g>
						</g>
						<g>
							<g>
								<g>
									<g>
										<g>
											<g>
												<g>
													<g>
														<g>
															<g>
																<g>
																	<g>
																		<g>
																			<path style="fill:#263238;" d="M322.956,87.894c-0.11,0.433-1.496,0.314-3.096,0.632
																				c-1.607,0.281-2.875,0.897-3.113,0.528c-0.107-0.177,0.096-0.591,0.597-1.035
																				c0.497-0.442,1.305-0.883,2.266-1.064c0.962-0.178,1.859-0.057,2.464,0.18
																				C322.684,87.372,323.003,87.688,322.956,87.894z"/>
																		</g>
																	</g>
																</g>
															</g>
														</g>
													</g>
												</g>
											</g>
										</g>
									</g>
								</g>
							</g>
						</g>
						<g>
							<g>
								<g>
									<g>
										<g>
											<g>
												<g>
													<g>
														<g>
															<g>
																<g>
																	<g>
																		<g>
																			<path style="fill:#263238;" d="M337.332,85.686c-0.173,0.415-1.305,0.336-2.557,0.655
																				c-1.263,0.274-2.241,0.849-2.581,0.555c-0.153-0.146-0.079-0.535,0.295-0.985
																				c0.368-0.447,1.057-0.916,1.922-1.12c0.864-0.203,1.69-0.09,2.218,0.146
																				C337.164,85.171,337.404,85.487,337.332,85.686z"/>
																		</g>
																	</g>
																</g>
															</g>
														</g>
													</g>
												</g>
											</g>
										</g>
									</g>
								</g>
							</g>
						</g>
						<g>
							<g>
								<g>
									<g>
										<g>
											<g>
												<g>
													<g>
														<g>
															<g>
																<g>
																	<g>
																		<path style="fill:#263238;" d="M337.701,79.633c0,0-3.774-5.808-7.054-6.728c-3.971-1.113-4.81,3.2-8.464,2.854
																			c-3.655-0.346-7.447-1.417-10.509,1.932c-3.352,3.665-1.153,5.41-0.584,9.908
																			c2.305,18.234-0.046,23.937-2.523,15.6c-0.271-0.913-2.977-1.187-4.073-5.055
																			c-1.421-5.016-2.742-11.179-2.267-15.008c0.401-3.227,1.748-5.651,4.43-8.542
																			c4.233-4.562,10.95-5.864,15.604-6.231C326.915,67.996,336.688,71.686,337.701,79.633z"/>
																	</g>
																</g>
															</g>
														</g>
													</g>
												</g>
											</g>
										</g>
									</g>
								</g>
							</g>
						</g>
						<g>
							<g>
								<g>
									<g>
										<g>
											<g>
												<g>
													<g>
														<g>
															<g>
																<g>
																	<g>
																		<path style="fill:#FFBF9D;" d="M310.418,102.582c-0.344-1.538-1.894-2.52-3.402-2.094
																			c-1.829,0.516-3.707,1.955-2.881,5.802c1.464,6.823,7.972,3.951,7.942,3.753
																			C312.056,109.908,311.056,105.432,310.418,102.582z"/>
																	</g>
																</g>
															</g>
														</g>
													</g>
												</g>
											</g>
										</g>
									</g>
								</g>
							</g>
						</g>
						<g>
							<g>
								<g>
									<g>
										<g>
											<g>
												<g>
													<g>
														<g>
															<g>
																<g>
																	<g>
																		<path style="fill:#FF9A6C;" d="M310.05,107.793c-0.035-0.016-0.101,0.109-0.28,0.244
																			c-0.175,0.131-0.497,0.265-0.879,0.208c-0.774-0.11-1.622-1.125-1.919-2.348c-0.15-0.617-0.148-1.236-0.034-1.773
																			c0.1-0.544,0.346-0.962,0.693-1.103c0.341-0.161,0.643,0.001,0.767,0.176c0.132,0.171,0.118,0.317,0.157,0.321
																			c0.022,0.013,0.121-0.146,0.006-0.416c-0.057-0.129-0.171-0.273-0.359-0.37c-0.191-0.098-0.445-0.115-0.691-0.033
																			c-0.515,0.149-0.882,0.734-1.007,1.323c-0.153,0.598-0.171,1.297-0.002,1.99c0.339,1.366,1.314,2.502,2.356,2.576
																			c0.504,0.023,0.871-0.207,1.042-0.412C310.073,107.96,310.076,107.8,310.05,107.793z"/>
																	</g>
																</g>
															</g>
														</g>
													</g>
												</g>
											</g>
										</g>
									</g>
								</g>
							</g>
						</g>
					</g>
					<g>
						<g>
							<g>
								<g>
									<g>
										<g>
											<g>
												<g>
													<g>
														<g>
															<g>
																<path style="fill:#263238;" d="M306.872,89.49c0.996,0.447,2.047,0.905,3.133,0.817
																	c1.087-0.088,2.196-0.926,2.183-2.023c-0.006-0.492-0.223-1.026,0.023-1.451c0.292-0.508,1.005-0.495,1.588-0.538
																	c2.022-0.149,3.797-1.929,3.95-3.962c0.644,0.67,1.819,0.422,2.495-0.213c0.676-0.636,1.021-1.538,1.495-2.337
																	c0.474-0.799,1.202-1.569,2.128-1.604c0.518-0.02,1.044,0.197,1.544,0.059c0.882-0.243,1.127-1.378,1.101-2.297
																	c-0.027-0.919-0.111-1.982,0.56-2.606c0.621-0.578,1.58-0.483,2.427-0.511c0.847-0.027,1.876-0.416,1.94-1.265
																	c0.034-0.446-0.229-0.861-0.531-1.189c-1.368-1.489-3.821-1.816-5.522-0.735c-1.079-2.146-3.508-3.528-5.892-3.352
																	c-2.383,0.177-4.579,1.901-5.325,4.183c-1.681-1.054-3.877-1.226-5.696-0.445c-1.819,0.78-3.213,2.492-3.616,4.439
																	c-1.739-0.137-3.514,0.852-4.318,2.407c-0.804,1.555-0.59,3.586,0.521,4.942c-1.099,0.927-1.926,2.344-1.693,3.769
																	c0.232,1.425,1.865,2.59,3.16,1.969c-0.35,1.206,0.371,2.626,1.548,3.05c1.177,0.424,2.628-0.213,3.116-1.369"/>
															</g>
														</g>
													</g>
												</g>
											</g>
										</g>
									</g>
								</g>
							</g>
						</g>
					</g>
				</g>
				<g>
					<g>
						<g>
							<g>
								<g>
									<g>
										<g>
											<g>
												<g>
													<g>
														<g>
															<path style="fill:#455A64;" d="M302.023,87.624c-0.027-0.014-0.021,0.6,0.665,1.242
																c0.337,0.303,0.87,0.584,1.516,0.572c0.633-0.008,1.359-0.296,1.842-0.922l-0.296,0.009
																c0.445,0.53,0.999,1.051,1.673,1.464c0.433,0.263,0.898,0.469,1.384,0.551c0.48,0.098,0.993,0.022,1.397-0.121
																c0.848-0.253,1.517-0.857,1.763-1.494c0.262-0.626,0.282-1.168,0.293-1.528c0.006-0.364-0.024-0.563-0.048-0.564
																c-0.031-0.001-0.054,0.198-0.107,0.551c-0.056,0.349-0.124,0.87-0.393,1.42c-0.468,1.102-2.484,1.987-4.082,0.841
																c-0.625-0.383-1.159-0.874-1.59-1.368l-0.157-0.18l-0.14,0.189c-0.388,0.525-1.005,0.799-1.549,0.826
																c-0.552,0.034-1.027-0.18-1.354-0.43C302.178,88.156,302.08,87.595,302.023,87.624z"/>
														</g>
													</g>
												</g>
											</g>
										</g>
									</g>
								</g>
							</g>
						</g>
					</g>
				</g>
				<g>
					<g>
						<g>
							<g>
								<g>
									<g>
										<g>
											<g>
												<g>
													<g>
														<g>
															<path style="fill:#455A64;" d="M312.069,69.608c0.001,0.024,0.187,0.016,0.515,0.09
																c0.321,0.077,0.807,0.256,1.224,0.714l0.105,0.116l0.071-0.145c0.482-0.976,1.35-2.277,2.811-3.286
																c0.727-0.496,1.601-0.905,2.578-1.081c0.971-0.181,2.039-0.084,3.04,0.305c0.778,0.302,1.47,0.766,2.018,1.328
																c0.54,0.57,0.928,1.241,1.126,1.933l0.061,0.213l0.196-0.095c0.974-0.47,2.055-0.459,2.899-0.168
																c0.856,0.289,1.469,0.855,1.855,1.39c0.77,1.107,0.726,1.978,0.795,1.956c0.016,0,0.037-0.203-0.019-0.576
																c-0.06-0.369-0.207-0.917-0.591-1.507c-0.379-0.582-1.016-1.217-1.937-1.555c-0.905-0.338-2.076-0.378-3.16,0.127
																l0.257,0.118c-0.205-0.756-0.621-1.49-1.199-2.108c-0.587-0.609-1.327-1.107-2.157-1.43
																c-1.066-0.416-2.217-0.516-3.254-0.313c-1.039,0.196-1.956,0.641-2.707,1.174c-1.51,1.084-2.364,2.458-2.808,3.483
																l0.177-0.028c-0.484-0.482-1.018-0.633-1.361-0.678C312.253,69.544,312.067,69.593,312.069,69.608z"/>
														</g>
													</g>
												</g>
											</g>
										</g>
									</g>
								</g>
							</g>
						</g>
					</g>
				</g>
			</g>
			<g>
				<g>
					<path style="fill:#E0E0E0;" d="M323.465,236.305c0.955,0.089,4.2,1.231,8.421-6.573c4.221-7.804,8.273-36.688,8.273-36.688
						L323.465,236.305z"/>
				</g>
				<g>
					<g>
						<g>
							<path style="fill:#E0E0E0;" d="M341.68,181.855l0.478-27.954l-5.616-21.396c0,0-3.935-6.152-8.223-9.284
								c-5.099-3.725-9.312-4.557-9.312-4.557l-6.433-1.559l-0.691,5.335l18.684,21.442L341.68,181.855z"/>
						</g>
					</g>
					<g>
						<g>
							<path style="fill:#263238;" d="M311.967,118.962c0,0,15.385,1.322,22.826,19.904c3.995,9.978,6.427,36.755,6.893,40.933
								c0.466,4.178-1.093,13.774-3.949,26.689c-0.556,2.512-2.564,9.116-8.049,25.123c-5.867,17.12-10.547,29.76-10.547,29.76
								l-49.176-19.026l24.456-42.906c0,0-1.293-13.214-1.232-14.483c0.47-9.824-1.44-15.36,1.809-34.247
								c0.968-5.63,2.922-11.055,5.855-15.993c3.093-5.208,5.388-6.762,10.645-10.686L311.967,118.962z"/>
						</g>
					</g>
					<g>
						<g>
							<g>
								<polygon style="fill:#263238;" points="317.263,236.184 318.56,225.808 295.114,216.299 290.833,226.21 								"/>
							</g>
						</g>
						<g>
							<g>
								<g>
									<path style="fill:#455A64;" d="M317.263,236.184c-0.008-0.013-0.191-0.093-0.535-0.233
										c-0.386-0.154-0.882-0.352-1.497-0.598c-1.346-0.527-3.213-1.257-5.528-2.163c-4.724-1.817-11.263-4.333-18.778-7.224
										l0.146,0.345c1.15-2.656,2.374-5.484,3.636-8.397c0.22-0.51,0.44-1.018,0.652-1.511l-0.345,0.141
										c9.217,3.704,17.486,7.026,23.477,9.434l-0.114-0.194c-0.35,3.158-0.634,5.72-0.838,7.555
										c-0.09,0.865-0.161,1.557-0.216,2.085C317.275,235.908,317.253,236.169,317.263,236.184
										c0.009,0.015,0.049-0.215,0.119-0.672c0.076-0.513,0.174-1.186,0.298-2.027c0.258-1.859,0.619-4.455,1.063-7.655l0.02-0.14
										l-0.134-0.055c-5.975-2.446-14.222-5.822-23.415-9.586l-0.242-0.099l-0.104,0.241c-0.213,0.493-0.432,1-0.653,1.51
										c-1.256,2.916-2.475,5.746-3.621,8.404l-0.108,0.251l0.255,0.094c7.627,2.824,14.264,5.281,19.058,7.055
										c2.309,0.839,4.171,1.516,5.513,2.004c0.6,0.213,1.084,0.385,1.461,0.519C317.103,236.144,317.271,236.197,317.263,236.184
										z"/>
								</g>
							</g>
						</g>
					</g>
					<g>
						<g>
							<path style="fill:#455A64;" d="M336.697,209.956c0.009,0.003-0.013,0.094-0.064,0.27c-0.062,0.203-0.141,0.459-0.238,0.776
								c-0.232,0.716-0.553,1.708-0.962,2.968c-0.87,2.608-2.106,6.317-3.629,10.883c-3.123,9.206-7.416,21.862-12.158,35.842
								c-0.089,0.26-0.178,0.52-0.26,0.76l-0.088,0.257l-0.253-0.098c-13.594-5.292-25.862-10.068-34.776-13.538
								c-4.404-1.741-7.977-3.153-10.49-4.147c-1.205-0.488-2.154-0.873-2.84-1.151c-0.3-0.127-0.541-0.23-0.733-0.311
								c-0.164-0.073-0.247-0.114-0.243-0.122c0.003-0.008,0.092,0.017,0.263,0.073c0.197,0.069,0.445,0.156,0.752,0.264
								c0.693,0.256,1.655,0.61,2.875,1.06c2.527,0.956,6.12,2.317,10.549,3.993c8.928,3.433,21.216,8.158,34.831,13.393
								l-0.34,0.159c0.082-0.24,0.171-0.5,0.259-0.76c4.798-13.96,9.142-26.599,12.302-35.792c1.588-4.544,2.878-8.234,3.785-10.83
								c0.448-1.246,0.8-2.228,1.054-2.936c0.117-0.31,0.211-0.56,0.287-0.759C336.65,210.039,336.688,209.953,336.697,209.956z"/>
						</g>
					</g>
				</g>
				<g>
					<g>
						<g>
							<g>
								<path style="fill:#455A64;" d="M264.409,264.762c0,0,5.815-18.937,10.756-20.219c4.941-1.282,11.49-1.489,12.647,1.734
									c1.158,3.223,2.104,7.927,1.899,12.685c-0.204,4.758-1.951,11.755-1.951,11.755l-5.05-1.565c0,0,3.949-19.227,2.928-22.377
									c-1.021-3.15-9.409-2.385-10.938,0.881c-1.528,3.266-6.391,18.306-6.391,18.306L264.409,264.762z"/>
							</g>
						</g>
					</g>
					<g>
						<g>
							<g>
								<g>
									<path style="fill:#455A64;" d="M241.203,288.582c1.772-7.933,5.907-25.373,7.732-33.043
										c0.497-2.091,2.559-3.415,4.668-2.997l47.385,9.381c2.115,0.419,3.517,2.438,3.171,4.565l-5.354,32.94
										c-0.361,2.218-2.477,3.704-4.685,3.289l-49.751-9.331C242.145,292.969,240.71,290.791,241.203,288.582z"/>
								</g>
							</g>
						</g>
						<g>
							<g>
								<g>
									<g>
										<path style="fill:#263238;" d="M299.289,274.059c0,0-0.015,0.116-0.058,0.353c-0.048,0.252-0.114,0.603-0.201,1.057
											c-0.185,0.95-0.453,2.325-0.797,4.089c-0.71,3.584-1.731,8.745-2.992,15.117c-0.08,0.4-0.161,0.804-0.243,1.213
											c-0.062,0.409-0.22,0.864-0.519,1.203c-0.294,0.342-0.697,0.603-1.149,0.708c-0.451,0.128-0.942,0.031-1.359-0.059
											c-1.74-0.336-3.549-0.685-5.423-1.047c-3.748-0.726-7.752-1.501-11.964-2.316c-4.213-0.818-8.635-1.677-13.219-2.567
											c-2.292-0.446-4.625-0.9-6.992-1.36c-1.184-0.23-2.376-0.463-3.576-0.697l-0.902-0.176
											c-0.29-0.062-0.614-0.094-0.929-0.24c-0.614-0.271-1.094-0.831-1.254-1.488c-0.071-0.28-0.086-0.575-0.045-0.86
											c0.046-0.286,0.108-0.526,0.161-0.791c0.111-0.518,0.221-1.033,0.331-1.548c0.22-1.029,0.439-2.052,0.656-3.068
											c0.435-2.032,0.864-4.038,1.287-6.012c0.846-3.947,1.665-7.765,2.446-11.41l0.037-0.174l0.172,0.044
											c13.471,3.444,25.119,5.913,33.387,7.536c4.134,0.813,7.423,1.421,9.677,1.835c1.121,0.208,1.991,0.369,2.595,0.482
											c0.28,0.054,0.497,0.096,0.659,0.127C299.221,274.04,299.293,274.056,299.289,274.059
											c-0.004,0.003-0.084-0.008-0.237-0.03c-0.165-0.025-0.387-0.059-0.674-0.102c-0.6-0.096-1.463-0.235-2.576-0.414
											c-2.26-0.379-5.556-0.955-9.697-1.739c-8.282-1.565-19.947-3.991-33.432-7.413l0.209-0.129
											c-0.777,3.647-1.59,7.466-2.431,11.414c-0.421,1.974-0.849,3.98-1.283,6.013c-0.217,1.016-0.436,2.039-0.655,3.068
											c-0.11,0.515-0.22,1.03-0.331,1.548c-0.111,0.53-0.26,1.014-0.119,1.486c0.133,0.55,0.537,1.021,1.05,1.247
											c0.247,0.118,0.544,0.15,0.852,0.215l0.902,0.176c1.2,0.234,2.392,0.467,3.576,0.698c2.367,0.462,4.699,0.918,6.991,1.366
											c4.583,0.897,9.003,1.763,13.215,2.588c4.21,0.827,8.212,1.613,11.958,2.349c1.872,0.369,3.68,0.725,5.419,1.067
											c0.443,0.096,0.841,0.176,1.241,0.067c0.396-0.09,0.75-0.318,1.01-0.616c0.265-0.307,0.399-0.67,0.466-1.08
											c0.083-0.405,0.165-0.806,0.247-1.202c1.313-6.332,2.377-11.46,3.116-15.022c0.373-1.772,0.663-3.153,0.864-4.106
											c0.099-0.461,0.176-0.818,0.232-1.075C299.254,274.189,299.289,274.059,299.289,274.059z"/>
									</g>
								</g>
							</g>
						</g>
						<g>
							<g>
								<g>
									<g>
										<path style="fill:#263238;" d="M281.621,292.493c0.004-0.024,0.294,0.05,0.851,0.046c0.548-0.02,1.399-0.146,2.272-0.743
											c0.876-0.585,1.657-1.71,1.817-3.227c0.292-1.491,0.624-3.184,0.989-5.052c0.185-0.936,0.378-1.916,0.579-2.937
											c0.258-1,0.222-2.09-0.288-3.062c-0.487-0.966-1.415-1.747-2.531-2.036c-1.146-0.255-2.37-0.479-3.601-0.73
											c-4.948-0.991-10.383-2.08-16.089-3.223c-1.369-0.278-2.844,0.211-3.744,1.235c-0.463,0.497-0.773,1.119-0.927,1.768
											c-0.14,0.682-0.279,1.358-0.416,2.028c-0.272,1.345-0.54,2.666-0.801,3.96c-0.131,0.647-0.261,1.287-0.389,1.92
											c-0.116,0.631-0.29,1.266-0.327,1.859c-0.074,1.214,0.45,2.399,1.305,3.166c0.424,0.388,0.925,0.677,1.456,0.849
											c0.525,0.159,1.111,0.245,1.653,0.365c2.195,0.45,4.242,0.869,6.112,1.253c3.717,0.773,6.733,1.399,8.846,1.839
											c1.024,0.221,1.828,0.394,2.401,0.518c0.258,0.059,0.463,0.107,0.623,0.144
											C281.552,292.467,281.623,292.487,281.621,292.493c-0.001,0.006-0.075-0.002-0.217-0.025
											c-0.161-0.028-0.369-0.064-0.63-0.108c-0.576-0.108-1.385-0.259-2.415-0.451c-2.119-0.412-5.142-1.001-8.868-1.726
											c-1.873-0.37-3.923-0.775-6.121-1.209c-0.553-0.12-1.102-0.193-1.688-0.365c-0.573-0.182-1.116-0.492-1.575-0.908
											c-0.927-0.823-1.5-2.102-1.424-3.418c0.042-0.666,0.213-1.272,0.327-1.91c0.126-0.633,0.254-1.274,0.384-1.921
											c0.259-1.295,0.523-2.617,0.793-3.962c0.137-0.674,0.276-1.354,0.415-2.04c0.167-0.707,0.505-1.385,1.009-1.928
											c0.98-1.116,2.589-1.653,4.082-1.348c5.704,1.153,11.137,2.251,16.083,3.251c1.239,0.258,2.434,0.48,3.618,0.75
											c1.203,0.318,2.199,1.167,2.715,2.207c0.545,1.034,0.567,2.248,0.295,3.254c-0.209,1.019-0.41,1.998-0.602,2.933
											c-0.385,1.865-0.734,3.554-1.042,5.042c-0.076,0.37-0.147,0.729-0.25,1.077c-0.12,0.339-0.256,0.66-0.438,0.937
											c-0.35,0.563-0.797,0.99-1.248,1.289c-0.916,0.599-1.794,0.702-2.351,0.699
											C281.905,292.593,281.621,292.493,281.621,292.493z"/>
									</g>
								</g>
							</g>
						</g>
						<g style="opacity:0.3;">
							<g>
								<g>
									<g>
										<path d="M248.788,289.139c13.234,6.965,28.538,9.936,43.417,8.431L248.788,289.139z"/>
									</g>
								</g>
							</g>
						</g>
						<g>
							<g>
								<g>
									<path style="fill:#E0E0E0;" d="M278.556,279.26l-5.59-1.125c-0.876-0.176-1.443-1.029-1.266-1.905l0,0
										c0.176-0.876,1.029-1.443,1.905-1.266l5.589,1.125c0.876,0.176,1.443,1.029,1.266,1.905l0,0
										C280.284,278.87,279.431,279.437,278.556,279.26z"/>
								</g>
							</g>
						</g>
					</g>
					<g>
						<g>
							<g>
								<g>
									<path style="fill:#FFBF9D;" d="M287.435,240.289c0,0,1.44,2.22,1.785,3.574c0.345,1.355,0.124,6.767,0.124,6.767
										s-1.174,0.592-2.122-2.555c-0.948-3.148-1.069-4.632-1.069-4.632L287.435,240.289z"/>
								</g>
							</g>
						</g>
						<g>
							<g>
								<g>
									<path style="fill:#FFBF9D;" d="M287.286,250.339l0.225-9.914l-3.817-7.324l-12.12-0.231l-0.433,12.007
										c0,0,1.779,5.152,2.628,6.125c0.85,0.973,2.548,0.252,2.548,0.252c0.917,1.434,3.429,0.907,3.429,0.907
										c1.236,1.466,3.151,0.085,3.151,0.085s1.682,1.541,2.456,1.443c0.273-0.035,0.554-0.243,0.813-0.518
										C286.884,252.409,287.262,251.387,287.286,250.339z"/>
								</g>
							</g>
						</g>
						<g>
							<g>
								<g>
									<g>
										<path style="fill:#FF9A6C;" d="M275.389,248.677c0.115-0.039,0.399,0.491,0.634,1.183
											c0.235,0.693,0.333,1.286,0.218,1.325c-0.115,0.039-0.399-0.491-0.634-1.184
											C275.371,249.309,275.274,248.716,275.389,248.677z"/>
									</g>
								</g>
							</g>
						</g>
						<g>
							<g>
								<g>
									<g>
										<path style="fill:#FF9A6C;" d="M278.532,248.533c0.124-0.016,0.328,0.826,0.63,1.841c0.297,1.016,0.583,1.834,0.47,1.888
											c-0.105,0.053-0.583-0.709-0.891-1.764C278.428,249.445,278.415,248.547,278.532,248.533z"/>
									</g>
								</g>
							</g>
						</g>
						<g>
							<g>
								<g>
									<g>
										<path style="fill:#FF9A6C;" d="M282.112,248.855c0.125-0.001,0.222,0.755,0.394,1.665
											c0.167,0.912,0.349,1.651,0.233,1.696c-0.109,0.044-0.488-0.658-0.665-1.615
											C281.894,249.645,281.995,248.853,282.112,248.855z"/>
									</g>
								</g>
							</g>
						</g>
						<g>
							<g>
								<g>
									<g>
										<path style="fill:#FF9A6C;" d="M287.368,243.538c0.121,0.004,0.197,1.691,0.17,3.768c-0.028,2.078-0.148,3.76-0.27,3.757
											c-0.121-0.003-0.197-1.69-0.169-3.769C287.126,245.216,287.246,243.534,287.368,243.538z"/>
									</g>
								</g>
							</g>
						</g>
						<g>
							<g>
								<g>
									<g>
										<path style="fill:#FF9A6C;" d="M275.213,246.687c0.035,0.045-0.043,0.187-0.258,0.317c-0.21,0.13-0.569,0.229-0.958,0.148
											c-0.389-0.082-0.677-0.318-0.818-0.521c-0.145-0.206-0.159-0.367-0.109-0.394c0.104-0.061,0.44,0.369,1.017,0.485
											C274.661,246.848,275.142,246.589,275.213,246.687z"/>
									</g>
								</g>
							</g>
						</g>
						<g>
							<g>
								<g>
									<g>
										<path style="fill:#FF9A6C;" d="M278.874,247.286c0.03,0.048-0.074,0.185-0.318,0.302c-0.24,0.117-0.623,0.187-1.029,0.105
											c-0.406-0.083-0.732-0.296-0.907-0.497c-0.179-0.202-0.221-0.369-0.175-0.402c0.101-0.072,0.506,0.346,1.17,0.468
											C278.273,247.408,278.809,247.18,278.874,247.286z"/>
									</g>
								</g>
							</g>
						</g>
						<g>
							<g>
								<g>
									<g>
										<path style="fill:#FF9A6C;" d="M285.879,246.555c0.042-0.055,0.28,0.27-0.003,0.692c-0.284,0.378-0.832,0.647-1.481,0.712
											c-0.65,0.059-1.23-0.138-1.579-0.365c-0.355-0.228-0.492-0.456-0.454-0.495c0.07-0.096,0.861,0.533,1.994,0.422
											c0.541-0.046,1.045-0.258,1.281-0.473C285.878,246.824,285.824,246.575,285.879,246.555z"/>
									</g>
								</g>
							</g>
						</g>
					</g>
				</g>
				<g>
					<g>
						<g>
							<g>
								<path style="fill:#263238;" d="M323.612,153.347c-4.763,4.957-34.32,33.977-34.32,33.977s-1.716,46.892-2.571,47.097
									c-0.856,0.205-17.851-1.194-17.851-1.194s-2.381-49.713-0.401-55.383c1.98-5.67,27.266-38.825,27.814-39.513
									c0.548-0.688,3.445-5.764,13.12-8.247c11.331-2.908,16.083,2.521,17.987,8.095c1.638,4.797-1.49,12.257-3.009,14.265
									C324.14,152.762,323.887,153.06,323.612,153.347z"/>
							</g>
							<g>
								<g>
									<path style="fill:#455A64;" d="M323.612,153.347c0,0,0.141-0.193,0.434-0.551c0.314-0.342,0.694-0.915,1.105-1.717
										c0.802-1.601,1.878-4.085,2.407-7.467c0.243-1.676,0.33-3.635-0.359-5.587c-0.697-1.945-1.793-3.985-3.573-5.623
										c-0.882-0.823-1.958-1.478-3.133-1.988c-1.179-0.523-2.501-0.757-3.854-0.915c-2.736-0.202-5.643,0.285-8.564,1.153
										c-2.912,0.883-5.879,2.225-8.454,4.325c-1.296,1.053-2.389,2.314-3.389,3.761c-1.05,1.388-2.12,2.801-3.208,4.239
										c-4.334,5.77-8.936,11.958-13.659,18.554c-2.358,3.3-4.761,6.693-7.09,10.239c-1.145,1.776-2.345,3.58-3.262,5.494
										c-0.104,0.242-0.236,0.475-0.319,0.724l-0.158,0.774c-0.128,0.508-0.183,1.045-0.224,1.59l-0.146,1.627l-0.075,1.646
										c-0.317,8.809-0.06,17.959,0.19,27.315c0.224,7.6,0.515,15.052,0.845,22.275l-0.235-0.244
										c3.081,0.242,6.125,0.48,9.129,0.716c1.502,0.106,2.995,0.211,4.476,0.315c0.741,0.044,1.479,0.088,2.214,0.132
										l1.098,0.047l0.542,0.011l0.233-0.01c0.01,0.017,0.157-0.044-0.017,0.041c-0.046,0.068,0-0.028,0-0.028
										c0.273-1.357,0.345-2.858,0.469-4.276c0.097-1.437,0.192-2.862,0.287-4.276c0.156-2.83,0.309-5.611,0.459-8.34
										c0.546-10.92,0.959-21.004,1.312-29.986l0.003-0.079l0.056-0.055c10.57-10.413,19.168-18.882,25.135-24.761
										c2.979-2.916,5.299-5.188,6.888-6.744c0.784-0.759,1.386-1.342,1.806-1.748
										C323.391,153.538,323.612,153.347,323.612,153.347s-0.192,0.218-0.588,0.623c-0.41,0.415-0.998,1.011-1.765,1.787
										c-1.572,1.574-3.866,3.87-6.812,6.819c-5.939,5.909-14.495,14.421-25.016,24.888l0.059-0.134
										c-0.323,8.985-0.711,19.07-1.237,29.995c-0.146,2.731-0.295,5.514-0.446,8.346c-0.093,1.416-0.187,2.844-0.282,4.283
										c-0.13,1.45-0.179,2.867-0.483,4.382c-0.038,0.078-0.008,0.082-0.11,0.222c-0.081,0.088-0.186,0.117-0.185,0.107
										l-0.08,0.006l-0.316,0.018l-0.559-0.01l-1.109-0.046c-0.737-0.043-1.478-0.087-2.22-0.13
										c-1.483-0.103-2.977-0.207-4.481-0.311c-3.005-0.233-6.051-0.47-9.133-0.709l-0.225-0.018l-0.01-0.226
										c-0.335-7.227-0.627-14.681-0.852-22.284c-0.25-9.364-0.504-18.509-0.179-27.354l0.077-1.655l0.15-1.649
										c0.042-0.548,0.098-1.095,0.236-1.647l0.173-0.824c0.088-0.263,0.225-0.508,0.335-0.763
										c0.958-1.995,2.153-3.775,3.308-5.565c2.34-3.554,4.75-6.946,7.115-10.245c4.737-6.594,9.353-12.774,13.704-18.535
										c1.094-1.437,2.168-2.849,3.224-4.235c0.516-0.672,1.014-1.417,1.603-2.047c0.576-0.647,1.213-1.223,1.86-1.768
										c2.638-2.137,5.655-3.485,8.603-4.367c2.955-0.865,5.905-1.35,8.698-1.13c1.384,0.167,2.736,0.415,3.947,0.957
										c1.205,0.53,2.309,1.211,3.209,2.061c1.817,1.692,2.918,3.779,3.61,5.754c0.694,2.018,0.585,4.009,0.325,5.699
										c-0.565,3.411-1.677,5.889-2.514,7.486c-0.429,0.798-0.829,1.371-1.157,1.702
										C323.779,153.179,323.612,153.347,323.612,153.347z"/>
								</g>
							</g>
						</g>
					</g>
				</g>
				<g>
					<g>
						<path style="fill:#455A64;" d="M340.379,174.813c-0.016,0.005-0.086-0.188-0.203-0.559c-0.127-0.422-0.29-0.963-0.491-1.632
							c-0.424-1.486-1.009-3.539-1.729-6.065c-1.437-5.209-3.407-12.354-5.62-20.38l-0.031-0.111l0.063-0.098
							c0.555-0.862,1.145-1.777,1.741-2.703l0.454-0.705l0.195,0.4c-1.134-0.106-2.247-0.21-3.313-0.309l-0.17-0.016l-0.053-0.165
							c-0.617-1.921-1.303-3.773-2.056-5.504c-0.753-1.728-1.567-3.363-2.571-4.733c-0.993-1.358-2.451-2.181-3.745-2.955
							c-1.322-0.75-2.592-1.376-3.753-1.933c-2.334-1.095-4.248-1.893-5.565-2.443c-0.621-0.258-1.122-0.467-1.516-0.63
							c-0.345-0.145-0.523-0.228-0.518-0.243c0.006-0.016,0.195,0.036,0.552,0.152c0.356,0.117,0.879,0.299,1.55,0.546
							c1.341,0.497,3.279,1.247,5.642,2.305c1.177,0.539,2.463,1.149,3.809,1.891c1.313,0.767,2.822,1.584,3.911,3.034
							c1.056,1.417,1.887,3.067,2.659,4.811c0.771,1.748,1.466,3.602,2.095,5.55l-0.223-0.181c1.066,0.098,2.179,0.201,3.313,0.305
							l0.428,0.039l-0.233,0.361l-0.454,0.705c-0.597,0.925-1.187,1.84-1.743,2.701l0.032-0.208
							c2.15,8.044,4.063,15.203,5.458,20.424c0.656,2.543,1.19,4.61,1.576,6.107c0.165,0.68,0.298,1.228,0.402,1.657
							C340.358,174.608,340.396,174.809,340.379,174.813z"/>
					</g>
				</g>
				<g>
					<g>
						<path style="fill:#FF725E;" d="M336.931,144.932c-5.798,3.422-10.506,3.398-20.187,2.577
							c-6.709-0.569-12.591-2.492-19.321-2.698c-9.701-0.296-16.966,2.664-25.807,6.667l-6.513,7.705l12.231,3.698
							c0,0,11.734-6.672,26.776-5.853c15.042,0.819,29.083-3.273,34.059-7.075l1.707-4.749l-0.649-2.473l-2.06-0.191
							L336.931,144.932z"/>
					</g>
					<g>
						<g>
							<path style="fill:#263238;" d="M336.931,144.932c0,0,0.002-0.216,0.031-0.62c0.034-0.425,0.082-1.015,0.143-1.777
								l0.005-0.061l0.063,0.005c0.583,0.048,1.274,0.104,2.062,0.169l0.058,0.005l0.016,0.058c0.196,0.722,0.421,1.553,0.669,2.467
								l0.008,0.031l-0.011,0.031c-0.49,1.388-1.051,2.981-1.678,4.759l-0.013,0.037l-0.032,0.025
								c-1.324,1.016-2.949,1.845-4.74,2.613c-1.798,0.756-3.773,1.463-5.917,2.05c-4.281,1.196-9.193,2.085-14.577,2.456
								c-2.691,0.165-5.5,0.249-8.398,0.101c-2.882-0.117-5.853-0.09-8.889,0.276c-3.033,0.352-6.115,0.991-9.186,1.91
								c-3.063,0.924-6.16,2.08-9.081,3.64l-0.101,0.054l-0.103-0.031c-2.281-0.689-4.708-1.423-7.162-2.164
								c-1.704-0.515-3.395-1.027-5.07-1.533l-0.379-0.115l0.256-0.302c2.218-2.621,4.395-5.194,6.516-7.702l0.037-0.044
								l0.053-0.024c4.358-1.971,8.641-3.828,12.956-5.039c4.306-1.227,8.622-1.747,12.687-1.622c4.076,0.1,7.86,0.849,11.357,1.5
								c3.5,0.677,6.751,1.178,9.748,1.382c2.99,0.243,5.689,0.42,8.047,0.343c2.359-0.055,4.365-0.4,5.941-0.875
								c1.58-0.469,2.734-1.028,3.511-1.402c0.364-0.19,0.649-0.339,0.864-0.45C336.819,144.979,336.924,144.928,336.931,144.932
								c0.007,0.004-0.085,0.064-0.274,0.178c-0.189,0.113-0.473,0.289-0.856,0.502c-0.766,0.403-1.914,0.992-3.501,1.493
								c-1.583,0.507-3.608,0.883-5.984,0.964c-2.376,0.104-5.086-0.05-8.083-0.271c-3.002-0.18-6.293-0.666-9.793-1.324
								c-3.503-0.632-7.266-1.358-11.296-1.442c-4.026-0.108-8.283,0.417-12.544,1.642c-4.269,1.209-8.526,3.062-12.878,5.037
								l0.09-0.068c-2.12,2.509-4.294,5.084-6.51,7.707l-0.123-0.416c1.675,0.506,3.366,1.017,5.07,1.532
								c2.453,0.742,4.88,1.476,7.161,2.166l-0.203,0.023c2.991-1.595,6.094-2.746,9.193-3.677c3.1-0.923,6.211-1.562,9.274-1.911
								c3.061-0.363,6.075-0.382,8.968-0.255c2.878,0.156,5.67,0.082,8.347-0.071c5.354-0.347,10.246-1.207,14.509-2.368
								c2.135-0.57,4.101-1.259,5.89-1.993c1.781-0.746,3.397-1.554,4.701-2.533l-0.045,0.061c0.648-1.77,1.229-3.356,1.735-4.738
								l-0.003,0.062c-0.233-0.919-0.445-1.752-0.629-2.478l0.074,0.063c-0.786-0.081-1.476-0.153-2.058-0.213l0.068-0.056
								c-0.09,0.769-0.16,1.364-0.21,1.792C336.969,144.739,336.931,144.932,336.931,144.932z"/>
						</g>
					</g>
				</g>
			</g>
		</g>
		<g>
			<g>
				<path style="fill:#455A64;" d="M314.018,207.336c-0.049,0.135-4.466-1.323-9.865-3.256c-5.401-1.934-9.739-3.611-9.69-3.747
					c0.048-0.135,4.465,1.322,9.866,3.257C309.728,205.523,314.067,207.201,314.018,207.336z"/>
			</g>
		</g>
	</g>
</g>
</svg>
